<svg xmlns="http://www.w3.org/2000/svg" viewBox="0 0 1600 1000" preserveAspectRatio="xMidYMid slice"><g fill="none" stroke="#0f766e" stroke-opacity="0.07" stroke-width="1" stroke-dasharray="4 6"><path d="M0,0 Q40,500 0,1000"/><path d="M160,0 Q200,500 160,1000"/><path d="M320,0 Q360,500 320,1000"/><path d="M480,0 Q520,500 480,1000"/><path d="M640,0 Q680,500 640,1000"/><path d="M800,0 Q840,500 800,1000"/><path d="M960,0 Q1000,500 960,1000"/><path d="M1120,0 Q1160,500 1120,1000"/><path d="M1280,0 Q1320,500 1280,1000"/><path d="M1440,0 Q1480,500 1440,1000"/><path d="M1600,0 Q1640,500 1600,1000"/><path d="M0,0 Q800,-30 1600,0"/><path d="M0,125 Q800,95 1600,125"/><path d="M0,250 Q800,220 1600,250"/><path d="M0,375 Q800,345 1600,375"/><path d="M0,500 Q800,470 1600,500"/><path d="M0,625 Q800,595 1600,625"/><path d="M0,750 Q800,720 1600,750"/><path d="M0,875 Q800,845 1600,875"/><path d="M0,1000 Q800,970 1600,1000"/></g><g fill="none"><path d="M212.1,160.0C211.7,161.1 211.5,162.2 211.4,163.3C211.2,164.4 211.2,165.5 211.1,166.7C211.1,167.8 211.1,169.0 210.9,170.2C210.7,171.4 210.4,172.7 209.9,173.8C209.4,175.0 208.7,176.1 207.9,177.1C207.0,178.1 205.9,179.0 204.7,179.8C203.6,180.6 202.2,181.2 200.9,181.8C199.6,182.4 198.2,182.8 196.8,183.3C195.5,183.8 194.1,184.2 192.8,184.8C191.5,185.3 190.2,185.8 188.8,186.4C187.5,186.9 186.1,187.6 184.6,188.1C183.2,188.7 181.6,189.3 180.0,189.6C178.4,189.9 176.7,190.2 175.0,190.1C173.4,190.1 171.7,189.8 170.2,189.3C168.7,188.8 167.2,188.0 166.0,187.1C164.8,186.1 163.7,184.9 162.8,183.8C162.0,182.6 161.3,181.3 160.7,180.1C160.0,179.0 159.6,177.8 159.0,176.8C158.3,175.8 157.7,175.0 156.9,174.2C156.0,173.4 155.0,172.8 153.8,172.1C152.6,171.4 151.1,170.8 149.7,170.0C148.3,169.3 146.6,168.5 145.2,167.5C143.8,166.5 142.3,165.3 141.2,164.1C140.2,162.8 139.3,161.4 138.9,160.0C138.5,158.6 138.4,157.1 138.7,155.7C139.0,154.2 139.8,152.8 140.6,151.6C141.5,150.3 142.8,149.1 144.0,148.1C145.2,147.0 146.7,146.1 148.0,145.2C149.4,144.4 150.7,143.6 152.1,142.8C153.4,142.1 154.6,141.4 155.9,140.7C157.2,140.0 158.4,139.4 159.7,138.8C161.0,138.3 162.3,137.7 163.7,137.4C165.0,137.0 166.5,136.7 167.9,136.7C169.3,136.6 170.9,136.7 172.3,136.9C173.7,137.1 175.1,137.5 176.4,137.9C177.7,138.4 178.9,138.9 180.0,139.3C181.1,139.7 182.1,140.2 183.2,140.4C184.3,140.6 185.3,140.7 186.5,140.6C187.7,140.6 188.9,140.3 190.3,140.1C191.8,139.8 193.4,139.3 195.1,139.1C196.8,138.8 198.8,138.5 200.7,138.5C202.5,138.4 204.6,138.5 206.3,139.0C208.0,139.4 209.8,140.0 211.1,140.9C212.4,141.8 213.5,143.0 214.1,144.2C214.8,145.5 215.1,146.9 215.2,148.3C215.3,149.7 215.0,151.2 214.7,152.6C214.4,153.9 213.8,155.2 213.3,156.5C212.9,157.7 212.4,158.9 212.1,160.0Z" stroke="#0f766e" stroke-opacity="0.16" stroke-width="1"/><path d="M243.8,160.0C243.1,162.3 242.7,164.4 242.5,166.6C242.2,168.8 242.4,171.0 242.3,173.3C242.2,175.7 242.3,178.1 241.9,180.5C241.6,182.9 241.1,185.5 240.1,187.8C239.1,190.1 237.7,192.4 235.9,194.3C234.2,196.3 231.9,198.1 229.5,199.6C227.2,201.2 224.4,202.4 221.8,203.6C219.1,204.7 216.3,205.6 213.6,206.6C211.0,207.6 208.3,208.5 205.7,209.6C203.0,210.6 200.5,211.8 197.7,213.0C195.0,214.1 192.3,215.5 189.3,216.6C186.4,217.7 183.2,218.9 180.0,219.6C176.8,220.3 173.3,220.8 170.0,220.7C166.7,220.5 163.3,220.0 160.3,218.9C157.3,217.8 154.4,216.0 152.0,214.1C149.6,212.1 147.6,209.6 145.9,207.2C144.2,204.9 143.0,202.2 141.8,199.8C140.5,197.5 139.7,195.2 138.4,193.3C137.1,191.4 135.9,189.7 134.1,188.2C132.3,186.7 130.1,185.5 127.6,184.2C125.1,182.9 122.0,181.7 119.0,180.2C115.9,178.7 112.4,177.1 109.5,175.1C106.6,173.1 103.5,170.8 101.4,168.3C99.3,165.8 97.5,162.8 96.8,160.0C96.0,157.2 96.0,154.1 96.7,151.2C97.4,148.4 99.0,145.6 100.9,143.0C102.8,140.5 105.4,138.2 108.0,136.1C110.6,134.1 113.6,132.3 116.3,130.6C119.1,128.9 121.9,127.4 124.5,125.9C127.2,124.5 129.7,123.1 132.2,121.8C134.8,120.5 137.2,119.1 139.8,118.0C142.3,117.0 144.9,115.9 147.7,115.2C150.4,114.5 153.3,114.1 156.2,113.9C159.0,113.8 162.0,114.1 164.8,114.6C167.6,115.1 170.4,116.0 172.9,116.9C175.4,117.7 177.8,118.8 180.0,119.6C182.2,120.4 184.2,121.2 186.3,121.6C188.5,121.9 190.4,122.0 192.8,121.8C195.2,121.5 197.7,120.8 200.6,120.2C203.6,119.5 206.9,118.5 210.4,117.8C214.0,117.2 218.0,116.4 221.9,116.3C225.7,116.3 229.9,116.5 233.4,117.3C236.9,118.1 240.4,119.5 243.0,121.4C245.5,123.2 247.6,125.6 248.9,128.2C250.2,130.7 250.7,133.7 250.7,136.6C250.8,139.4 250.0,142.4 249.3,145.1C248.6,147.9 247.3,150.5 246.4,153.0C245.4,155.5 244.4,157.7 243.8,160.0Z" stroke="#0f766e" stroke-opacity="0.16" stroke-width="1"/><path d="M275.1,160.0C274.2,163.4 273.7,166.5 273.4,169.8C273.1,173.2 273.5,176.5 273.4,180.0C273.4,183.5 273.7,187.2 273.2,190.9C272.7,194.5 272.0,198.3 270.5,201.8C269.0,205.3 266.9,208.7 264.2,211.7C261.5,214.6 258.1,217.3 254.5,219.6C250.9,221.9 246.7,223.7 242.7,225.4C238.7,227.1 234.5,228.4 230.5,229.9C226.4,231.5 222.5,232.8 218.6,234.5C214.6,236.1 210.8,237.9 206.7,239.8C202.6,241.6 198.5,243.8 194.1,245.5C189.6,247.2 184.9,249.1 180.0,250.1C175.1,251.1 169.9,251.8 164.9,251.6C160.0,251.3 154.8,250.3 150.3,248.5C145.9,246.8 141.6,244.0 138.1,241.0C134.6,237.9 131.7,234.0 129.2,230.4C126.8,226.7 125.1,222.6 123.3,219.1C121.5,215.6 120.2,212.2 118.3,209.4C116.3,206.5 114.4,204.2 111.5,202.0C108.7,199.9 105.3,198.3 101.3,196.4C97.3,194.5 92.4,192.8 87.6,190.6C82.9,188.4 77.4,186.0 72.9,183.0C68.3,180.0 63.6,176.4 60.4,172.6C57.2,168.8 54.7,164.3 53.6,160.0C52.5,155.7 52.7,151.0 53.9,146.7C55.1,142.5 57.8,138.2 60.9,134.5C63.9,130.7 68.1,127.3 72.1,124.3C76.1,121.2 80.7,118.6 85.0,116.1C89.2,113.6 93.4,111.5 97.4,109.3C101.4,107.2 105.2,105.1 109.0,103.2C112.8,101.3 116.4,99.3 120.3,97.7C124.1,96.1 128.0,94.6 132.1,93.6C136.2,92.7 140.5,92.0 144.8,91.9C149.0,91.9 153.5,92.4 157.6,93.2C161.8,94.0 165.9,95.5 169.6,96.7C173.3,98.0 176.7,99.8 180.0,100.9C183.3,102.0 186.1,103.1 189.3,103.5C192.5,103.9 195.4,103.8 199.0,103.3C202.6,102.7 206.4,101.4 210.9,100.2C215.5,99.0 220.6,97.2 226.1,96.1C231.6,95.0 237.8,93.8 243.7,93.6C249.6,93.4 256.0,93.7 261.3,95.0C266.6,96.2 271.8,98.5 275.7,101.3C279.5,104.1 282.4,107.9 284.2,111.9C286.0,115.8 286.5,120.4 286.4,124.7C286.3,129.1 285.0,133.6 283.7,137.8C282.5,141.9 280.4,145.9 279.0,149.6C277.6,153.3 276.0,156.6 275.1,160.0Z" stroke="#0f766e" stroke-opacity="0.16" stroke-width="1"/><path d="M306.1,160.0C304.9,164.5 304.4,168.6 304.1,173.1C303.9,177.5 304.5,182.0 304.6,186.7C304.7,191.4 305.2,196.4 304.7,201.3C304.1,206.2 303.2,211.4 301.2,216.0C299.2,220.6 296.3,225.2 292.7,229.2C289.1,233.1 284.3,236.6 279.5,239.6C274.7,242.6 269.0,245.0 263.7,247.2C258.3,249.5 252.7,251.2 247.3,253.3C242.0,255.3 236.8,257.2 231.5,259.5C226.3,261.7 221.2,264.3 215.8,266.8C210.3,269.4 204.8,272.4 198.9,274.7C192.9,277.1 186.5,279.6 180.0,281.0C173.5,282.3 166.4,283.2 159.8,282.8C153.2,282.4 146.3,280.8 140.4,278.3C134.4,275.8 128.8,271.9 124.3,267.7C119.7,263.4 116.0,258.0 112.8,253.1C109.7,248.1 107.6,242.6 105.3,237.9C102.9,233.3 101.3,228.8 98.6,225.1C95.9,221.4 93.2,218.5 89.2,215.7C85.3,213.0 80.4,211.0 74.8,208.6C69.2,206.2 62.3,204.1 55.7,201.2C49.1,198.3 41.4,195.1 35.2,191.0C29.0,187.0 22.6,182.2 18.3,177.0C14.0,171.9 10.7,165.8 9.4,160.0C8.1,154.2 8.7,147.8 10.6,142.2C12.4,136.5 16.4,130.8 20.7,125.9C25.0,120.9 30.9,116.4 36.5,112.4C42.1,108.4 48.4,105.1 54.1,101.9C59.8,98.6 65.6,95.8 70.9,93.0C76.3,90.2 81.3,87.6 86.3,85.1C91.4,82.5 96.2,80.0 101.3,77.9C106.4,75.8 111.5,73.9 117.0,72.7C122.4,71.4 128.1,70.7 133.8,70.7C139.4,70.7 145.3,71.5 150.8,72.7C156.2,73.8 161.6,75.9 166.4,77.6C171.3,79.4 175.7,81.7 180.0,83.1C184.3,84.5 188.0,85.9 192.1,86.2C196.3,86.5 200.2,86.1 205.1,85.1C210.0,84.1 215.2,82.0 221.4,80.1C227.5,78.3 234.7,75.6 242.2,73.9C249.6,72.2 258.3,70.4 266.3,70.1C274.3,69.7 282.9,70.1 290.1,71.9C297.3,73.7 304.2,76.8 309.2,80.7C314.2,84.6 317.9,89.9 320.1,95.3C322.3,100.6 322.6,107.0 322.3,112.9C321.9,118.7 319.8,124.9 318.0,130.4C316.1,136.0 313.2,141.2 311.3,146.2C309.3,151.1 307.2,155.5 306.1,160.0Z" stroke="#b8892b" stroke-opacity="0.28" stroke-width="1.6"/><path d="M336.6,160.0C335.2,165.6 334.8,170.7 334.7,176.3C334.6,181.9 335.7,187.5 335.9,193.4C336.2,199.4 337.1,205.7 336.4,211.8C335.8,218.0 334.8,224.5 332.3,230.3C329.7,236.2 326.0,241.9 321.4,246.8C316.8,251.7 310.8,256.0 304.6,259.7C298.5,263.4 291.4,266.3 284.6,269.1C277.9,271.9 270.9,274.1 264.2,276.7C257.5,279.2 251.1,281.7 244.5,284.6C238.0,287.5 231.7,290.9 224.9,294.2C218.1,297.5 211.3,301.4 203.8,304.4C196.3,307.4 188.2,310.7 180.0,312.3C171.8,314.0 162.9,315.0 154.6,314.4C146.3,313.7 137.7,311.5 130.4,308.2C123.0,304.8 116.2,299.6 110.6,294.1C105.0,288.6 100.6,281.6 96.8,275.3C93.0,269.0 90.6,262.0 87.7,256.2C84.8,250.4 82.8,245.0 79.4,240.5C76.0,236.0 72.4,232.5 67.1,229.3C61.9,226.0 55.4,223.8 48.0,220.9C40.7,218.1 31.6,215.6 23.0,212.0C14.3,208.4 4.4,204.4 -3.6,199.4C-11.6,194.3 -19.7,188.2 -25.0,181.6C-30.4,175.0 -34.3,167.3 -35.7,160.0C-37.1,152.7 -36.0,144.7 -33.3,137.5C-30.6,130.4 -25.2,123.4 -19.5,117.2C-13.7,111.1 -6.0,105.7 1.2,100.8C8.5,95.9 16.5,91.8 23.8,87.9C31.1,83.9 38.3,80.6 45.1,77.2C51.8,73.8 58.0,70.5 64.3,67.4C70.5,64.3 76.4,61.2 82.8,58.6C89.1,56.1 95.6,53.7 102.3,52.3C109.0,50.9 116.2,50.1 123.2,50.2C130.2,50.4 137.5,51.6 144.2,53.1C150.9,54.6 157.5,57.3 163.5,59.5C169.4,61.7 174.8,64.5 180.0,66.2C185.2,67.8 189.7,69.3 194.9,69.4C200.1,69.6 205.0,68.7 211.1,67.0C217.3,65.4 224.0,62.4 231.9,59.7C239.9,57.0 249.1,53.3 258.7,50.9C268.3,48.6 279.4,46.2 289.6,45.7C299.8,45.3 310.8,45.8 319.8,48.1C328.8,50.4 337.4,54.6 343.5,59.6C349.7,64.7 354.1,71.6 356.5,78.5C359.0,85.4 359.0,93.5 358.2,100.9C357.4,108.4 354.4,116.2 351.9,123.2C349.4,130.1 345.6,136.7 343.1,142.8C340.5,149.0 338.0,154.4 336.6,160.0Z" stroke="#0f766e" stroke-opacity="0.16" stroke-width="1"/><path d="M366.8,160.0C365.3,166.7 365.1,172.8 365.2,179.5C365.3,186.2 366.9,193.0 367.4,200.2C368.0,207.3 369.2,215.0 368.5,222.5C367.9,229.9 366.6,237.8 363.6,244.8C360.6,251.8 356.0,258.7 350.3,264.6C344.7,270.4 337.3,275.5 329.9,279.9C322.4,284.3 313.8,287.6 305.6,291.0C297.5,294.4 289.1,296.9 281.1,300.1C273.1,303.2 265.4,306.3 257.6,309.9C249.8,313.5 242.3,317.7 234.2,321.8C226.1,325.9 217.7,330.8 208.7,334.5C199.7,338.2 189.9,342.2 180.0,344.1C170.1,346.0 159.3,347.2 149.4,346.2C139.4,345.1 129.1,342.3 120.4,338.0C111.7,333.7 103.6,327.1 97.0,320.3C90.5,313.5 85.5,304.8 81.1,297.1C76.7,289.4 74.0,281.0 70.6,274.1C67.2,267.1 64.8,260.8 60.6,255.5C56.3,250.3 51.7,246.5 45.1,242.8C38.5,239.1 30.2,236.7 20.9,233.5C11.6,230.2 0.1,227.4 -10.6,223.2C-21.4,218.9 -33.7,214.1 -43.5,207.9C-53.3,201.8 -63.1,194.3 -69.5,186.3C-75.9,178.3 -80.4,168.9 -81.7,160.0C-83.1,151.1 -81.3,141.4 -77.6,132.9C-73.9,124.3 -66.9,115.9 -59.6,108.6C-52.2,101.4 -42.5,95.0 -33.5,89.2C-24.6,83.5 -14.6,78.8 -5.7,74.2C3.2,69.6 11.8,65.7 19.9,61.7C28.0,57.7 35.4,53.9 42.8,50.3C50.3,46.7 57.3,42.9 64.9,40.0C72.4,37.1 80.1,34.3 88.1,32.7C96.1,31.1 104.7,30.3 113.0,30.6C121.3,30.9 130.0,32.5 138.0,34.5C145.9,36.4 153.6,39.8 160.6,42.4C167.6,45.0 173.8,48.3 180.0,50.1C186.2,51.9 191.4,53.4 197.6,53.2C203.8,53.0 209.6,51.4 217.2,49.0C224.7,46.6 233.0,42.4 242.7,38.8C252.5,35.2 264.0,30.3 275.8,27.2C287.7,24.2 301.4,21.1 313.8,20.5C326.3,19.9 339.7,20.6 350.5,23.6C361.4,26.5 371.6,31.7 378.7,38.0C385.9,44.3 390.8,52.9 393.4,61.4C396.0,69.9 395.5,79.9 394.2,89.0C392.9,98.1 388.8,107.5 385.5,115.9C382.2,124.4 377.5,132.2 374.4,139.5C371.3,146.9 368.3,153.3 366.8,160.0Z" stroke="#0f766e" stroke-opacity="0.16" stroke-width="1"/><path d="M396.6,160.0C395.0,167.7 395.2,174.9 395.6,182.7C396.0,190.5 398.2,198.5 399.1,207.0C400.0,215.4 401.6,224.5 401.0,233.2C400.3,242.0 398.9,251.2 395.3,259.4C391.7,267.6 386.2,275.7 379.5,282.5C372.8,289.2 364.0,295.1 355.2,300.1C346.4,305.2 336.2,309.0 326.7,312.9C317.1,316.8 307.3,319.8 298.0,323.5C288.7,327.3 279.9,331.0 270.8,335.3C261.7,339.7 253.1,344.8 243.6,349.8C234.1,354.7 224.3,360.6 213.7,365.0C203.1,369.4 191.6,374.1 180.0,376.3C168.4,378.5 155.7,379.6 144.1,378.2C132.5,376.8 120.5,373.1 110.4,367.7C100.4,362.4 91.1,354.3 83.7,346.1C76.2,337.8 70.7,327.5 65.7,318.3C60.8,309.2 57.9,299.4 54.0,291.4C50.1,283.4 47.3,276.1 42.1,270.3C37.0,264.4 31.3,260.3 23.2,256.3C15.0,252.3 4.7,249.8 -6.6,246.2C-18.0,242.6 -32.1,239.5 -45.1,234.6C-58.1,229.7 -73.0,224.0 -84.6,216.7C-96.3,209.5 -107.8,200.5 -115.1,191.1C-122.4,181.6 -127.4,170.5 -128.5,160.0C-129.7,149.5 -127.0,138.2 -122.2,128.2C-117.3,118.2 -108.5,108.5 -99.4,100.1C-90.3,91.7 -78.5,84.5 -67.7,77.9C-56.8,71.4 -45.0,66.1 -34.5,60.9C-23.9,55.7 -13.8,51.3 -4.4,46.8C5.0,42.3 13.5,37.9 22.1,33.7C30.8,29.6 38.9,25.3 47.6,22.0C56.3,18.6 65.2,15.5 74.5,13.8C83.8,12.1 93.7,11.3 103.3,11.8C112.9,12.3 122.9,14.4 132.0,16.8C141.2,19.2 150.0,23.2 158.0,26.2C166.0,29.2 173.0,33.0 180.0,34.8C187.0,36.7 193.0,38.0 200.2,37.3C207.4,36.7 214.3,34.2 223.2,30.9C232.2,27.6 242.1,22.0 253.9,17.3C265.6,12.6 279.4,6.4 293.6,2.6C307.8,-1.3 324.2,-5.0 339.0,-5.7C353.7,-6.5 369.6,-5.4 382.3,-1.8C394.9,1.8 406.7,8.2 414.7,15.9C422.8,23.6 428.1,34.0 430.6,44.2C433.2,54.4 432.0,66.4 430.1,77.1C428.1,87.9 422.9,99.0 418.7,108.8C414.6,118.7 408.9,127.8 405.2,136.3C401.5,144.8 398.3,152.3 396.6,160.0Z" stroke="#0f766e" stroke-opacity="0.16" stroke-width="1"/><path d="M426.1,160.0C424.5,168.8 425.1,176.9 425.9,185.9C426.7,194.9 429.7,204.1 431.0,213.8C432.3,223.5 434.4,234.0 433.8,244.1C433.2,254.2 431.5,264.8 427.3,274.2C423.2,283.6 416.7,292.8 408.9,300.5C401.1,308.2 390.8,314.7 380.6,320.5C370.4,326.2 358.6,330.4 347.7,334.8C336.8,339.3 325.6,342.7 315.0,347.1C304.4,351.4 294.4,355.8 284.1,361.0C273.7,366.1 263.9,372.3 253.1,378.1C242.2,383.9 231.0,390.9 218.8,396.0C206.7,401.1 193.3,406.5 180.0,408.9C166.7,411.3 152.0,412.3 138.8,410.4C125.5,408.5 111.9,403.9 100.5,397.4C89.1,390.8 78.8,381.1 70.5,371.4C62.3,361.7 56.3,349.5 50.8,339.0C45.4,328.4 42.4,317.2 37.9,308.1C33.4,299.1 30.2,291.1 24.1,284.8C17.9,278.4 11.0,274.0 1.2,269.8C-8.7,265.5 -21.1,263.1 -34.8,259.2C-48.4,255.3 -65.3,251.9 -80.6,246.4C-96.0,240.8 -113.5,234.2 -127.0,225.8C-140.5,217.4 -153.7,207.0 -161.9,196.0C-170.1,185.0 -175.2,172.1 -176.1,160.0C-176.9,147.9 -173.1,134.9 -166.9,123.5C-160.7,112.1 -149.8,101.1 -138.9,91.7C-127.9,82.2 -113.8,74.1 -101.0,66.9C-88.3,59.6 -74.5,53.8 -62.3,48.1C-50.1,42.3 -38.6,37.5 -27.9,32.4C-17.1,27.3 -7.6,22.4 2.2,17.8C12.0,13.1 21.1,8.3 30.9,4.6C40.8,0.9 50.9,-2.6 61.4,-4.3C71.9,-6.1 83.2,-6.8 94.0,-6.0C104.9,-5.3 116.2,-2.7 126.5,0.1C136.7,3.0 146.5,7.6 155.5,10.9C164.4,14.3 172.1,18.4 180.0,20.2C187.9,22.0 194.5,23.0 202.8,21.7C211.0,20.4 219.0,16.9 229.4,12.5C239.8,8.1 251.6,1.0 265.4,-4.9C279.2,-10.8 295.5,-18.4 312.1,-23.1C328.7,-27.8 348.0,-32.2 365.1,-33.0C382.3,-33.8 400.6,-32.4 415.0,-28.0C429.4,-23.6 442.6,-15.8 451.5,-6.7C460.4,2.5 465.8,14.9 468.2,26.9C470.6,38.9 468.6,52.8 465.8,65.3C463.0,77.8 456.5,90.5 451.4,101.8C446.4,113.1 439.7,123.4 435.5,133.1C431.3,142.8 427.7,151.2 426.1,160.0Z" stroke="#b8892b" stroke-opacity="0.28" stroke-width="1.6"/><path d="M455.3,160.0C453.8,169.9 455.0,179.0 456.3,189.1C457.6,199.2 461.4,209.7 463.2,220.7C465.0,231.7 467.6,243.7 467.0,255.1C466.5,266.5 464.5,278.6 459.7,289.2C455.0,299.8 447.4,310.0 438.4,318.7C429.5,327.3 417.7,334.5 406.1,340.8C394.4,347.2 381.1,351.8 368.8,356.8C356.4,361.8 343.9,365.6 332.0,370.6C320.1,375.6 309.0,380.8 297.4,386.8C285.9,392.8 274.9,400.0 262.7,406.8C250.4,413.6 237.8,421.6 224.0,427.4C210.2,433.3 195.1,439.3 180.0,441.8C164.9,444.4 148.4,445.3 133.5,442.8C118.6,440.3 103.3,434.5 90.7,426.8C78.0,419.0 66.7,407.6 57.7,396.3C48.6,385.0 42.3,371.0 36.4,359.0C30.5,347.1 27.3,334.4 22.3,324.4C17.3,314.4 13.5,305.8 6.3,299.0C-0.9,292.1 -9.3,287.8 -21.0,283.4C-32.6,278.9 -47.5,276.6 -63.5,272.5C-79.6,268.3 -99.4,264.7 -117.3,258.5C-135.1,252.3 -155.2,244.7 -170.7,235.2C-186.1,225.6 -200.9,213.6 -209.8,201.1C-218.7,188.5 -223.9,173.7 -224.3,160.0C-224.6,146.3 -219.4,131.5 -211.6,118.8C-203.9,106.0 -190.8,93.8 -177.8,83.3C-164.7,72.9 -148.3,64.1 -133.5,56.1C-118.7,48.2 -103.0,41.9 -89.2,35.7C-75.3,29.4 -62.4,24.1 -50.4,18.6C-38.3,13.0 -27.8,7.6 -16.9,2.4C-6.1,-2.7 4.0,-8.0 15.0,-12.1C25.9,-16.1 37.2,-19.9 48.9,-21.7C60.6,-23.5 73.2,-24.1 85.2,-23.0C97.3,-22.0 109.9,-18.9 121.2,-15.6C132.5,-12.3 143.3,-7.1 153.1,-3.4C162.9,0.2 171.3,4.6 180.0,6.3C188.7,7.9 196.0,8.4 205.3,6.3C214.6,4.2 223.7,-0.6 235.7,-6.3C247.7,-12.0 261.4,-20.7 277.3,-28.0C293.3,-35.2 312.3,-44.3 331.4,-49.9C350.6,-55.4 372.8,-60.5 392.3,-61.4C411.9,-62.2 432.7,-60.3 448.8,-55.0C464.9,-49.7 479.5,-40.4 489.0,-29.7C498.6,-18.9 504.0,-4.5 506.1,9.4C508.1,23.3 505.0,39.3 501.3,53.5C497.6,67.8 489.7,82.2 483.6,94.9C477.6,107.6 469.9,119.1 465.2,130.0C460.5,140.8 456.8,150.1 455.3,160.0Z" stroke="#0f766e" stroke-opacity="0.16" stroke-width="1"/><path d="M1451.1,140.0C1450.7,141.1 1450.2,142.1 1449.8,143.1C1449.4,144.2 1449.1,145.2 1448.7,146.1C1448.3,147.1 1448.0,148.2 1447.5,149.1C1447.0,150.1 1446.4,151.0 1445.7,151.9C1444.9,152.7 1444.0,153.5 1443.0,154.1C1442.0,154.7 1440.7,155.2 1439.5,155.6C1438.3,156.0 1437.0,156.2 1435.8,156.4C1434.6,156.7 1433.3,156.7 1432.3,157.0C1431.2,157.2 1430.2,157.5 1429.3,157.9C1428.3,158.4 1427.6,159.0 1426.6,159.8C1425.7,160.6 1424.8,161.6 1423.7,162.6C1422.6,163.7 1421.4,165.0 1420.0,166.0C1418.6,167.1 1416.9,168.3 1415.2,169.1C1413.5,169.9 1411.5,170.6 1409.7,170.8C1407.8,171.1 1405.8,171.0 1404.2,170.6C1402.5,170.2 1400.8,169.4 1399.5,168.4C1398.2,167.4 1397.2,166.0 1396.3,164.7C1395.5,163.3 1395.0,161.8 1394.6,160.3C1394.2,158.9 1394.0,157.4 1393.8,156.1C1393.5,154.8 1393.4,153.5 1393.2,152.4C1392.9,151.2 1392.6,150.2 1392.3,149.2C1391.9,148.2 1391.4,147.2 1391.0,146.2C1390.6,145.2 1390.1,144.2 1389.8,143.2C1389.4,142.1 1389.2,141.1 1389.1,140.0C1389.0,138.9 1389.0,137.8 1389.2,136.8C1389.4,135.7 1389.8,134.6 1390.2,133.6C1390.6,132.6 1391.2,131.6 1391.6,130.6C1392.0,129.6 1392.5,128.6 1392.9,127.5C1393.2,126.4 1393.5,125.2 1393.8,123.9C1394.2,122.7 1394.4,121.3 1394.7,119.8C1395.1,118.3 1395.5,116.7 1396.2,115.2C1396.9,113.6 1397.7,112.0 1398.8,110.6C1399.9,109.3 1401.3,108.0 1402.9,107.0C1404.5,106.1 1406.4,105.4 1408.3,105.1C1410.2,104.8 1412.3,104.8 1414.3,105.1C1416.2,105.4 1418.2,106.2 1420.0,106.9C1421.8,107.7 1423.5,108.7 1425.0,109.7C1426.5,110.6 1427.9,111.7 1429.2,112.5C1430.5,113.4 1431.7,114.2 1433.0,114.8C1434.4,115.5 1435.6,115.9 1437.0,116.4C1438.4,116.9 1439.9,117.2 1441.4,117.7C1442.9,118.1 1444.5,118.6 1446.0,119.2C1447.4,119.9 1448.9,120.6 1450.1,121.5C1451.3,122.5 1452.3,123.6 1453.0,124.8C1453.7,125.9 1454.1,127.3 1454.3,128.6C1454.4,130.0 1454.3,131.4 1454.0,132.7C1453.7,134.0 1453.2,135.3 1452.7,136.6C1452.2,137.8 1451.6,138.9 1451.1,140.0Z" stroke="#0f766e" stroke-opacity="0.16" stroke-width="1"/><path d="M1481.3,140.0C1480.3,142.2 1479.4,144.1 1478.6,146.2C1477.8,148.2 1477.2,150.1 1476.5,152.1C1475.8,154.1 1475.2,156.1 1474.2,158.0C1473.2,159.8 1472.1,161.8 1470.6,163.4C1469.1,165.0 1467.3,166.6 1465.2,167.8C1463.2,169.0 1460.7,169.9 1458.3,170.6C1455.9,171.4 1453.2,171.7 1450.8,172.2C1448.5,172.6 1446.1,172.7 1444.0,173.3C1441.9,173.8 1440.1,174.3 1438.3,175.3C1436.5,176.4 1435.0,177.7 1433.2,179.4C1431.4,181.1 1429.7,183.4 1427.5,185.6C1425.3,187.8 1422.9,190.6 1420.0,192.9C1417.1,195.1 1413.8,197.6 1410.2,199.2C1406.7,200.9 1402.7,202.3 1399.0,202.7C1395.3,203.2 1391.2,203.0 1387.9,202.1C1384.5,201.2 1381.2,199.3 1378.7,197.2C1376.1,195.1 1374.1,192.2 1372.6,189.5C1371.0,186.7 1370.1,183.4 1369.4,180.5C1368.6,177.6 1368.4,174.6 1368.0,171.9C1367.6,169.3 1367.4,166.8 1366.9,164.5C1366.4,162.2 1365.8,160.2 1365.0,158.2C1364.3,156.2 1363.3,154.3 1362.4,152.3C1361.5,150.4 1360.4,148.4 1359.8,146.3C1359.1,144.3 1358.4,142.1 1358.2,140.0C1358.0,137.9 1358.2,135.7 1358.5,133.5C1358.9,131.4 1359.7,129.3 1360.5,127.2C1361.2,125.2 1362.3,123.2 1363.1,121.1C1363.9,119.1 1364.8,117.1 1365.4,114.8C1366.1,112.5 1366.6,110.2 1367.1,107.5C1367.6,104.9 1367.9,102.0 1368.7,98.9C1369.4,95.9 1370.1,92.5 1371.4,89.4C1372.8,86.2 1374.5,82.9 1376.8,80.1C1379.1,77.4 1382.0,74.7 1385.2,72.9C1388.5,71.0 1392.4,69.7 1396.3,69.2C1400.1,68.7 1404.5,68.9 1408.4,69.7C1412.4,70.4 1416.4,72.0 1420.0,73.7C1423.6,75.3 1426.9,77.6 1430.0,79.5C1433.0,81.5 1435.6,83.6 1438.3,85.4C1441.0,87.1 1443.3,88.7 1445.9,89.9C1448.5,91.2 1451.1,92.1 1453.9,93.0C1456.8,93.9 1459.8,94.4 1462.8,95.3C1465.9,96.2 1469.2,97.1 1472.1,98.3C1475.0,99.6 1478.0,101.1 1480.3,103.0C1482.6,104.8 1484.7,107.1 1486.0,109.5C1487.3,111.9 1488.0,114.7 1488.3,117.4C1488.5,120.1 1488.0,122.9 1487.4,125.6C1486.7,128.2 1485.5,130.8 1484.5,133.2C1483.5,135.6 1482.2,137.8 1481.3,140.0Z" stroke="#0f766e" stroke-opacity="0.16" stroke-width="1"/><path d="M1510.2,140.0C1508.7,143.2 1507.4,146.1 1506.3,149.1C1505.1,152.1 1504.4,155.0 1503.4,157.9C1502.3,160.8 1501.5,163.8 1500.1,166.5C1498.7,169.3 1497.1,172.2 1494.8,174.6C1492.6,177.0 1489.8,179.2 1486.7,181.0C1483.6,182.7 1479.9,184.0 1476.3,185.0C1472.7,186.1 1468.8,186.5 1465.3,187.2C1461.8,187.8 1458.3,188.1 1455.3,188.9C1452.3,189.8 1449.7,190.6 1447.1,192.3C1444.5,194.0 1442.4,196.2 1439.8,199.0C1437.1,201.8 1434.7,205.4 1431.4,209.0C1428.1,212.6 1424.4,217.0 1420.0,220.6C1415.6,224.2 1410.4,228.0 1405.1,230.5C1399.8,233.1 1393.6,235.1 1387.9,235.8C1382.3,236.4 1376.2,235.9 1371.1,234.4C1366.1,232.8 1361.3,229.9 1357.5,226.6C1353.8,223.2 1350.9,218.6 1348.7,214.3C1346.6,209.9 1345.4,204.9 1344.4,200.4C1343.4,196.0 1343.3,191.4 1342.7,187.4C1342.2,183.4 1342.0,179.8 1341.2,176.4C1340.5,173.0 1339.5,170.1 1338.4,167.1C1337.2,164.1 1335.5,161.3 1334.1,158.4C1332.7,155.5 1331.0,152.6 1329.9,149.5C1328.8,146.4 1327.8,143.2 1327.5,140.0C1327.2,136.8 1327.3,133.5 1327.9,130.3C1328.4,127.1 1329.6,124.0 1330.6,120.8C1331.7,117.7 1333.2,114.8 1334.4,111.6C1335.5,108.5 1336.7,105.4 1337.6,101.9C1338.4,98.4 1339.0,94.8 1339.6,90.7C1340.3,86.6 1340.6,82.0 1341.7,77.3C1342.7,72.6 1343.7,67.4 1345.7,62.5C1347.7,57.7 1350.3,52.5 1353.9,48.4C1357.4,44.2 1361.9,40.2 1366.9,37.5C1372.0,34.9 1378.0,33.0 1384.0,32.4C1389.9,31.8 1396.5,32.4 1402.5,33.7C1408.5,35.1 1414.6,37.7 1420.0,40.4C1425.4,43.0 1430.3,46.6 1434.9,49.7C1439.4,52.7 1443.3,56.0 1447.2,58.7C1451.2,61.3 1454.7,63.6 1458.6,65.4C1462.5,67.2 1466.5,68.4 1470.7,69.7C1475.0,71.0 1479.7,71.7 1484.3,73.0C1488.9,74.3 1493.9,75.5 1498.3,77.4C1502.7,79.3 1507.2,81.5 1510.6,84.4C1514.1,87.2 1517.0,90.7 1518.9,94.3C1520.8,98.0 1521.6,102.2 1521.8,106.3C1522.0,110.3 1521.0,114.6 1520.0,118.6C1518.9,122.5 1516.9,126.4 1515.3,130.0C1513.7,133.5 1511.8,136.8 1510.2,140.0Z" stroke="#0f766e" stroke-opacity="0.16" stroke-width="1"/><path d="M1538.1,140.0C1536.0,144.2 1534.4,148.0 1532.9,151.9C1531.4,155.8 1530.6,159.6 1529.3,163.4C1528.0,167.3 1527.0,171.2 1525.2,174.9C1523.4,178.5 1521.2,182.3 1518.3,185.4C1515.3,188.5 1511.6,191.4 1507.4,193.7C1503.3,195.9 1498.3,197.6 1493.6,198.9C1488.8,200.2 1483.6,200.7 1479.0,201.6C1474.5,202.4 1470.0,202.7 1466.2,204.0C1462.3,205.2 1459.0,206.5 1455.7,209.0C1452.4,211.4 1449.8,214.7 1446.4,218.7C1443.0,222.8 1439.7,228.0 1435.3,233.1C1430.9,238.2 1425.9,244.4 1420.0,249.4C1414.1,254.4 1407.0,259.7 1399.7,263.1C1392.5,266.5 1384.1,269.2 1376.5,270.0C1368.8,270.7 1360.7,269.8 1354.0,267.5C1347.2,265.2 1340.9,261.0 1336.1,256.3C1331.3,251.5 1327.6,245.1 1324.9,239.1C1322.2,233.1 1321.0,226.2 1319.9,220.1C1318.7,214.0 1318.7,207.9 1318.0,202.6C1317.4,197.2 1317.2,192.4 1316.2,188.0C1315.2,183.5 1313.8,179.7 1312.2,175.7C1310.5,171.8 1308.1,168.3 1306.1,164.4C1304.2,160.6 1301.8,156.7 1300.2,152.6C1298.6,148.6 1297.2,144.3 1296.7,140.0C1296.2,135.7 1296.4,131.3 1297.1,127.1C1297.8,122.8 1299.3,118.6 1300.7,114.4C1302.1,110.2 1304.0,106.3 1305.4,102.0C1306.8,97.7 1308.1,93.6 1309.1,88.8C1310.1,84.0 1310.6,79.0 1311.4,73.3C1312.1,67.7 1312.4,61.4 1313.6,54.9C1314.9,48.5 1316.2,41.2 1318.9,34.6C1321.7,28.0 1325.2,21.0 1330.1,15.4C1334.9,9.8 1341.2,4.5 1348.1,1.1C1354.9,-2.4 1363.3,-4.6 1371.4,-5.2C1379.4,-5.8 1388.4,-4.6 1396.5,-2.5C1404.6,-0.5 1412.8,3.4 1420.0,7.2C1427.2,11.0 1433.7,16.1 1439.7,20.3C1445.7,24.5 1450.8,29.0 1456.0,32.5C1461.2,36.0 1465.9,38.9 1471.1,41.3C1476.3,43.7 1481.6,45.1 1487.4,46.7C1493.1,48.2 1499.5,49.1 1505.7,50.7C1511.9,52.3 1518.7,53.8 1524.6,56.3C1530.5,58.8 1536.5,61.9 1541.0,65.7C1545.5,69.6 1549.3,74.3 1551.6,79.2C1553.9,84.2 1554.8,89.9 1554.9,95.3C1554.9,100.7 1553.3,106.5 1551.7,111.8C1550.0,117.0 1547.2,122.1 1545.0,126.8C1542.7,131.5 1540.1,135.8 1538.1,140.0Z" stroke="#b8892b" stroke-opacity="0.28" stroke-width="1.6"/><path d="M1564.6,140.0C1562.1,145.1 1560.1,149.8 1558.4,154.6C1556.7,159.4 1555.7,164.1 1554.2,168.8C1552.8,173.5 1551.7,178.4 1549.5,182.9C1547.2,187.4 1544.6,192.0 1541.0,195.9C1537.3,199.7 1532.6,203.2 1527.4,205.9C1522.3,208.6 1516.0,210.6 1510.1,212.1C1504.3,213.7 1497.8,214.2 1492.2,215.3C1486.7,216.4 1481.3,216.8 1476.7,218.5C1472.0,220.2 1468.2,222.1 1464.3,225.5C1460.3,228.8 1457.2,233.3 1453.1,238.8C1448.9,244.2 1444.9,251.2 1439.4,258.0C1433.9,264.7 1427.5,272.9 1420.0,279.4C1412.5,285.9 1403.4,292.7 1394.2,297.0C1384.9,301.3 1374.2,304.6 1364.6,305.3C1355.0,306.1 1344.8,304.7 1336.4,301.5C1328.0,298.3 1320.3,292.6 1314.4,286.3C1308.6,280.0 1304.3,271.6 1301.2,263.8C1298.1,256.0 1296.9,247.2 1295.7,239.5C1294.5,231.7 1294.6,224.1 1294.0,217.4C1293.3,210.7 1293.0,204.8 1291.7,199.2C1290.5,193.7 1288.6,189.1 1286.4,184.3C1284.2,179.4 1281.1,175.1 1278.4,170.3C1275.8,165.6 1272.6,160.8 1270.5,155.7C1268.4,150.7 1266.6,145.3 1265.9,140.0C1265.2,134.7 1265.4,129.1 1266.2,123.8C1267.0,118.5 1268.9,113.2 1270.5,108.0C1272.1,102.7 1274.4,97.7 1276.0,92.3C1277.6,86.9 1279.1,81.5 1280.1,75.4C1281.1,69.2 1281.5,62.7 1282.2,55.4C1282.9,48.1 1283.0,39.9 1284.5,31.6C1286.0,23.3 1287.6,14.0 1291.0,5.6C1294.5,-2.8 1299.1,-11.8 1305.4,-18.8C1311.6,-25.8 1319.8,-32.4 1328.6,-36.5C1337.5,-40.6 1348.2,-43.1 1358.5,-43.5C1368.8,-44.0 1380.3,-42.0 1390.5,-39.0C1400.8,-36.1 1411.0,-30.8 1420.0,-25.7C1429.0,-20.6 1437.0,-14.0 1444.5,-8.6C1451.9,-3.2 1458.1,2.5 1464.6,6.9C1471.1,11.3 1476.8,14.8 1483.3,17.7C1489.9,20.5 1496.5,22.1 1503.8,23.9C1511.1,25.7 1519.2,26.5 1527.0,28.4C1534.9,30.3 1543.5,32.2 1550.9,35.3C1558.3,38.4 1565.7,42.3 1571.3,47.1C1576.8,52.0 1581.3,58.0 1584.0,64.3C1586.7,70.5 1587.5,77.8 1587.2,84.6C1587.0,91.4 1584.7,98.6 1582.4,105.2C1580.1,111.7 1576.4,118.0 1573.4,123.8C1570.4,129.6 1567.1,134.9 1564.6,140.0Z" stroke="#0f766e" stroke-opacity="0.16" stroke-width="1"/><path d="M1589.8,140.0C1586.9,146.0 1584.6,151.5 1582.7,157.1C1580.8,162.8 1579.9,168.3 1578.3,173.9C1576.6,179.5 1575.5,185.3 1572.9,190.7C1570.4,196.0 1567.3,201.5 1562.9,206.0C1558.5,210.5 1552.8,214.6 1546.7,217.8C1540.5,220.9 1533.0,223.0 1526.0,224.8C1519.0,226.6 1511.4,227.2 1504.9,228.5C1498.4,229.8 1492.2,230.4 1486.9,232.6C1481.5,234.9 1477.2,237.5 1472.8,241.9C1468.3,246.3 1464.8,252.2 1459.9,259.2C1455.1,266.2 1450.3,275.3 1443.7,283.8C1437.0,292.4 1429.2,302.6 1420.0,310.7C1410.8,318.8 1399.6,327.1 1388.4,332.3C1377.1,337.5 1364.0,341.3 1352.4,341.9C1340.7,342.6 1328.4,340.4 1318.4,336.2C1308.5,332.0 1299.4,324.5 1292.6,316.6C1285.8,308.6 1281.1,298.1 1277.7,288.4C1274.2,278.7 1273.1,267.9 1272.0,258.4C1270.8,249.0 1271.2,239.8 1270.5,231.8C1269.9,223.7 1269.5,216.8 1267.9,210.2C1266.4,203.7 1264.0,198.3 1261.1,192.6C1258.3,187.0 1254.3,181.9 1250.9,176.3C1247.5,170.6 1243.5,164.9 1240.8,158.9C1238.2,152.8 1235.9,146.4 1234.9,140.0C1234.0,133.6 1234.3,127.0 1235.1,120.5C1235.9,114.1 1238.2,107.8 1240.0,101.4C1241.8,95.1 1244.4,89.0 1246.1,82.4C1247.8,75.7 1249.3,69.2 1250.3,61.6C1251.3,54.0 1251.3,45.9 1252.0,36.9C1252.7,27.8 1252.6,17.6 1254.2,7.4C1255.9,-2.9 1257.8,-14.4 1262.0,-24.7C1266.3,-35.0 1272.0,-45.9 1279.8,-54.2C1287.6,-62.6 1297.7,-70.4 1308.6,-75.1C1319.6,-79.8 1332.8,-82.4 1345.5,-82.4C1358.1,-82.5 1372.1,-79.6 1384.5,-75.6C1396.9,-71.6 1409.2,-64.7 1420.0,-58.2C1430.8,-51.7 1440.3,-43.5 1449.1,-36.8C1457.9,-30.1 1465.2,-23.2 1472.9,-18.0C1480.6,-12.8 1487.5,-8.7 1495.3,-5.5C1503.2,-2.3 1511.3,-0.7 1520.1,1.3C1528.9,3.3 1538.8,4.1 1548.3,6.2C1557.8,8.4 1568.3,10.5 1577.2,14.3C1586.0,18.0 1595.0,22.8 1601.4,28.6C1607.9,34.5 1613.1,41.9 1616.0,49.5C1618.9,57.0 1619.5,65.9 1618.8,74.1C1618.2,82.3 1615.0,91.0 1612.0,98.8C1608.9,106.7 1604.2,114.1 1600.5,121.0C1596.8,127.8 1592.8,134.0 1589.8,140.0Z" stroke="#0f766e" stroke-opacity="0.16" stroke-width="1"/><path d="M1613.7,140.0C1610.3,146.9 1607.9,153.1 1605.8,159.6C1603.8,166.0 1603.0,172.4 1601.3,178.9C1599.6,185.3 1598.4,192.0 1595.6,198.2C1592.7,204.3 1589.2,210.6 1584.1,215.8C1579.0,220.9 1572.3,225.6 1565.2,229.1C1558.0,232.7 1549.2,235.0 1541.2,237.0C1533.2,239.0 1524.4,239.6 1517.0,241.2C1509.6,242.8 1502.8,243.6 1496.8,246.5C1490.9,249.3 1486.3,252.8 1481.3,258.4C1476.3,264.0 1472.5,271.6 1467.0,280.3C1461.5,289.1 1455.9,300.3 1448.1,310.8C1440.3,321.3 1431.0,333.7 1420.0,343.5C1409.0,353.2 1395.7,363.1 1382.3,369.1C1368.9,375.2 1353.4,379.3 1339.7,379.7C1326.0,380.1 1311.6,377.1 1300.1,371.6C1288.6,366.2 1278.2,356.8 1270.6,347.0C1263.0,337.2 1257.9,324.4 1254.3,312.7C1250.7,301.1 1249.9,288.1 1248.8,277.0C1247.7,265.8 1248.5,255.0 1247.8,245.7C1247.1,236.4 1246.7,228.4 1244.7,220.9C1242.8,213.5 1239.8,207.4 1236.2,200.9C1232.7,194.4 1227.7,188.6 1223.5,182.1C1219.3,175.6 1214.3,169.0 1211.0,162.0C1207.7,155.0 1205.0,147.5 1203.7,140.0C1202.5,132.5 1202.8,124.8 1203.7,117.2C1204.6,109.7 1207.1,102.3 1209.1,94.8C1211.1,87.3 1213.9,80.2 1215.6,72.3C1217.4,64.4 1218.8,56.5 1219.6,47.4C1220.4,38.3 1220.2,28.5 1220.7,17.6C1221.2,6.8 1220.8,-5.5 1222.7,-17.8C1224.6,-30.1 1226.8,-44.0 1231.9,-56.1C1237.0,-68.3 1244.0,-81.1 1253.4,-90.9C1262.8,-100.6 1275.0,-109.4 1288.2,-114.6C1301.3,-119.7 1317.2,-122.3 1332.3,-121.8C1347.4,-121.4 1363.9,-117.4 1378.5,-112.1C1393.1,-106.8 1407.5,-98.1 1420.0,-90.2C1432.5,-82.2 1443.4,-72.2 1453.6,-64.2C1463.8,-56.2 1472.1,-48.2 1481.0,-42.2C1489.9,-36.1 1497.8,-31.6 1507.0,-28.1C1516.2,-24.5 1525.8,-23.0 1536.2,-21.0C1546.6,-18.9 1558.3,-18.2 1569.5,-15.9C1580.7,-13.5 1593.1,-11.1 1603.4,-6.7C1613.7,-2.4 1624.1,3.3 1631.4,10.2C1638.8,17.2 1644.5,26.0 1647.5,34.9C1650.5,43.9 1650.7,54.3 1649.5,63.9C1648.3,73.6 1644.2,83.7 1640.3,92.8C1636.5,101.8 1630.7,110.4 1626.3,118.3C1621.8,126.1 1617.1,133.1 1613.7,140.0Z" stroke="#0f766e" stroke-opacity="0.16" stroke-width="1"/><path d="M1636.2,140.0C1632.4,147.7 1629.9,154.6 1627.8,161.9C1625.7,169.2 1625.1,176.3 1623.4,183.6C1621.7,190.9 1620.6,198.5 1617.5,205.4C1614.3,212.4 1610.3,219.5 1604.6,225.3C1598.8,231.0 1591.1,236.2 1583.0,240.1C1574.9,244.0 1564.9,246.4 1555.8,248.7C1546.8,250.9 1537.0,251.5 1528.8,253.4C1520.6,255.3 1513.1,256.4 1506.7,260.1C1500.2,263.7 1495.4,268.1 1490.0,275.1C1484.6,282.2 1480.5,291.5 1474.3,302.2C1468.1,312.9 1461.8,326.5 1452.8,339.1C1443.7,351.7 1432.8,366.4 1420.0,377.8C1407.2,389.2 1391.5,400.7 1376.0,407.5C1360.4,414.3 1342.4,418.7 1326.6,418.7C1310.9,418.7 1294.4,414.5 1281.4,407.7C1268.4,400.8 1256.9,389.4 1248.6,377.6C1240.2,365.7 1235.0,350.5 1231.3,336.8C1227.5,323.0 1227.1,307.9 1226.2,295.0C1225.3,282.1 1226.4,269.8 1225.8,259.2C1225.1,248.6 1224.5,239.7 1222.2,231.4C1219.8,223.0 1216.0,216.3 1211.7,209.0C1207.4,201.8 1201.2,195.3 1196.1,188.0C1191.0,180.7 1185.1,173.2 1181.1,165.2C1177.1,157.2 1173.8,148.5 1172.3,140.0C1170.7,131.5 1171.0,122.5 1171.9,113.9C1172.9,105.2 1175.6,96.7 1177.7,88.1C1179.8,79.4 1182.8,71.2 1184.5,62.0C1186.2,52.7 1187.4,43.5 1188.0,32.8C1188.6,22.1 1187.8,10.5 1188.1,-2.3C1188.5,-15.1 1187.8,-29.7 1189.9,-44.1C1191.9,-58.5 1194.5,-74.7 1200.5,-88.8C1206.6,-102.9 1215.0,-117.7 1226.1,-128.7C1237.2,-139.7 1251.8,-149.5 1267.3,-155.0C1282.8,-160.4 1301.5,-162.7 1319.0,-161.6C1336.5,-160.4 1355.7,-155.0 1372.6,-148.3C1389.4,-141.6 1405.8,-131.0 1420.0,-121.4C1434.2,-111.8 1446.5,-100.1 1458.0,-90.8C1469.4,-81.4 1478.7,-72.2 1488.8,-65.5C1498.9,-58.7 1507.9,-53.8 1518.4,-50.1C1528.9,-46.3 1540.0,-45.0 1552.0,-43.0C1564.1,-40.9 1577.7,-40.4 1590.6,-37.9C1603.5,-35.3 1617.8,-32.6 1629.6,-27.7C1641.3,-22.7 1653.0,-16.1 1661.2,-8.0C1669.3,0.0 1675.4,10.3 1678.4,20.6C1681.4,31.0 1681.1,43.0 1679.2,54.1C1677.4,65.2 1672.1,76.7 1667.4,87.0C1662.6,97.2 1655.7,106.9 1650.5,115.7C1645.3,124.6 1640.0,132.3 1636.2,140.0Z" stroke="#b8892b" stroke-opacity="0.28" stroke-width="1.6"/><path d="M1381.6,860.0C1381.3,861.1 1380.8,862.1 1380.6,863.2C1380.3,864.3 1380.2,865.3 1380.1,866.5C1380.0,867.6 1380.1,868.7 1380.2,870.0C1380.2,871.3 1380.4,872.6 1380.3,874.0C1380.3,875.4 1380.2,876.9 1379.8,878.3C1379.4,879.7 1378.9,881.2 1378.0,882.4C1377.2,883.7 1376.0,884.8 1374.7,885.7C1373.3,886.6 1371.7,887.3 1370.0,887.8C1368.4,888.2 1366.5,888.4 1364.7,888.4C1362.9,888.4 1361.1,888.2 1359.4,888.0C1357.7,887.8 1356.0,887.4 1354.5,887.2C1352.9,886.9 1351.5,886.6 1350.0,886.4C1348.5,886.3 1347.2,886.2 1345.7,886.2C1344.2,886.1 1342.8,886.2 1341.2,886.3C1339.7,886.3 1338.0,886.4 1336.4,886.3C1334.8,886.2 1333.0,886.1 1331.4,885.8C1329.8,885.4 1328.1,885.0 1326.7,884.3C1325.2,883.7 1323.8,882.9 1322.5,882.0C1321.3,881.1 1320.2,880.0 1319.2,878.9C1318.2,877.8 1317.4,876.6 1316.7,875.4C1315.9,874.2 1315.3,872.9 1314.7,871.7C1314.2,870.4 1313.6,869.2 1313.3,867.9C1312.9,866.6 1312.5,865.3 1312.4,864.0C1312.3,862.6 1312.2,861.3 1312.5,860.0C1312.8,858.7 1313.2,857.4 1314.0,856.2C1314.7,855.0 1315.8,853.9 1317.1,852.9C1318.3,852.0 1319.9,851.2 1321.5,850.5C1323.0,849.9 1324.9,849.5 1326.5,849.2C1328.2,848.8 1329.9,848.7 1331.4,848.6C1332.8,848.4 1334.1,848.4 1335.2,848.2C1336.3,848.0 1337.1,847.8 1337.9,847.3C1338.6,846.9 1339.0,846.3 1339.6,845.5C1340.1,844.7 1340.4,843.7 1341.0,842.6C1341.6,841.6 1342.2,840.3 1343.0,839.1C1343.8,837.9 1344.8,836.7 1346.0,835.6C1347.2,834.6 1348.6,833.6 1350.0,833.0C1351.4,832.3 1353.1,831.8 1354.7,831.6C1356.3,831.4 1357.9,831.4 1359.5,831.6C1361.1,831.8 1362.6,832.2 1364.1,832.7C1365.6,833.2 1367.0,833.9 1368.4,834.6C1369.7,835.2 1371.0,836.0 1372.3,836.8C1373.5,837.6 1374.7,838.4 1375.9,839.3C1377.0,840.2 1378.1,841.1 1379.1,842.1C1380.1,843.2 1381.0,844.2 1381.6,845.4C1382.3,846.5 1382.9,847.8 1383.2,849.0C1383.5,850.2 1383.6,851.6 1383.5,852.8C1383.5,854.1 1383.1,855.3 1382.8,856.5C1382.5,857.7 1382.0,858.9 1381.6,860.0Z" stroke="#0f766e" stroke-opacity="0.16" stroke-width="1"/><path d="M1413.0,860.0C1412.2,862.2 1411.4,864.3 1411.0,866.4C1410.5,868.6 1410.3,870.6 1410.2,872.9C1410.2,875.2 1410.5,877.6 1410.7,880.1C1410.9,882.7 1411.4,885.5 1411.3,888.3C1411.3,891.1 1411.2,894.3 1410.4,897.1C1409.7,900.0 1408.6,903.0 1406.8,905.4C1405.0,907.9 1402.6,910.3 1399.9,912.0C1397.1,913.8 1393.7,915.1 1390.3,915.9C1386.9,916.7 1383.1,916.9 1379.5,916.9C1375.9,916.9 1372.2,916.4 1368.7,915.9C1365.3,915.4 1362.0,914.6 1358.9,914.1C1355.8,913.5 1352.9,913.0 1350.0,912.7C1347.1,912.4 1344.3,912.3 1341.4,912.3C1338.5,912.3 1335.5,912.5 1332.4,912.6C1329.2,912.7 1325.9,913.0 1322.6,912.9C1319.3,912.7 1315.8,912.5 1312.5,911.9C1309.3,911.3 1305.9,910.3 1303.0,909.0C1300.0,907.8 1297.2,906.1 1294.7,904.3C1292.2,902.4 1290.0,900.2 1288.1,898.0C1286.2,895.8 1284.6,893.3 1283.2,890.9C1281.7,888.4 1280.5,885.9 1279.4,883.4C1278.3,880.9 1277.3,878.3 1276.5,875.8C1275.8,873.2 1275.1,870.5 1274.9,867.9C1274.7,865.3 1274.7,862.6 1275.3,860.0C1275.9,857.4 1277.0,854.8 1278.6,852.5C1280.3,850.2 1282.5,847.9 1285.2,846.1C1287.8,844.3 1291.1,842.7 1294.4,841.6C1297.6,840.4 1301.4,839.7 1304.7,839.1C1308.1,838.5 1311.5,838.4 1314.4,838.1C1317.2,837.9 1319.8,837.9 1321.8,837.5C1323.9,837.1 1325.4,836.6 1326.7,835.7C1328.0,834.7 1328.7,833.4 1329.6,831.8C1330.5,830.1 1331.1,827.9 1332.2,825.6C1333.2,823.3 1334.3,820.5 1335.9,818.0C1337.6,815.6 1339.5,812.9 1341.9,810.7C1344.2,808.6 1347.1,806.6 1350.0,805.2C1352.9,803.8 1356.3,802.8 1359.5,802.4C1362.7,802.0 1366.1,802.1 1369.3,802.5C1372.4,802.9 1375.6,803.9 1378.5,804.9C1381.5,805.9 1384.3,807.3 1387.0,808.7C1389.7,810.1 1392.3,811.7 1394.8,813.3C1397.3,814.9 1399.8,816.5 1402.1,818.3C1404.3,820.1 1406.6,822.0 1408.5,824.1C1410.4,826.1 1412.2,828.3 1413.5,830.7C1414.9,833.0 1415.9,835.5 1416.4,838.0C1417.0,840.5 1417.1,843.1 1416.9,845.7C1416.7,848.2 1416.1,850.7 1415.4,853.1C1414.7,855.5 1413.7,857.8 1413.0,860.0Z" stroke="#0f766e" stroke-opacity="0.16" stroke-width="1"/><path d="M1444.0,860.0C1442.9,863.3 1441.8,866.4 1441.2,869.6C1440.6,872.8 1440.4,875.9 1440.5,879.4C1440.6,882.9 1441.3,886.5 1441.7,890.4C1442.1,894.3 1443.0,898.6 1443.0,903.0C1443.0,907.3 1443.0,912.1 1441.9,916.4C1440.8,920.8 1439.0,925.3 1436.3,929.0C1433.6,932.8 1429.8,936.3 1425.6,938.8C1421.4,941.4 1416.1,943.2 1410.9,944.4C1405.7,945.5 1399.8,945.7 1394.3,945.5C1388.8,945.4 1383.2,944.4 1378.0,943.6C1372.8,942.8 1367.9,941.5 1363.3,940.7C1358.6,939.9 1354.4,939.1 1350.0,938.7C1345.6,938.3 1341.5,938.2 1337.1,938.3C1332.7,938.4 1328.2,938.9 1323.5,939.2C1318.7,939.4 1313.7,939.9 1308.7,939.8C1303.7,939.6 1298.4,939.4 1293.4,938.4C1288.4,937.5 1283.4,936.0 1278.9,934.1C1274.4,932.2 1270.2,929.6 1266.5,926.8C1262.9,923.9 1259.7,920.6 1256.8,917.2C1254.0,913.8 1251.7,910.1 1249.5,906.4C1247.4,902.7 1245.6,898.9 1244.0,895.1C1242.4,891.3 1240.9,887.5 1239.9,883.6C1238.8,879.7 1237.9,875.8 1237.7,871.8C1237.5,867.9 1237.6,863.8 1238.6,860.0C1239.7,856.2 1241.5,852.3 1244.1,848.8C1246.7,845.4 1250.4,842.2 1254.5,839.5C1258.6,836.9 1263.8,834.7 1268.8,833.1C1273.8,831.5 1279.6,830.5 1284.6,829.8C1289.7,829.1 1294.9,829.1 1299.1,828.7C1303.3,828.4 1307.0,828.5 1309.8,827.9C1312.7,827.3 1314.7,826.6 1316.4,825.0C1318.1,823.5 1319.0,821.3 1320.1,818.6C1321.3,815.9 1322.0,812.3 1323.4,808.6C1324.8,804.9 1326.4,800.5 1328.8,796.6C1331.1,792.7 1334.1,788.4 1337.7,785.1C1341.2,781.7 1345.5,778.6 1350.0,776.5C1354.5,774.4 1359.5,773.0 1364.4,772.4C1369.3,771.7 1374.4,772.0 1379.2,772.7C1384.0,773.4 1388.8,774.9 1393.2,776.5C1397.7,778.2 1401.9,780.3 1406.0,782.4C1410.0,784.6 1413.9,787.0 1417.7,789.4C1421.5,791.9 1425.2,794.4 1428.6,797.1C1432.0,799.9 1435.4,802.7 1438.2,805.8C1441.1,808.9 1443.7,812.3 1445.7,815.8C1447.6,819.3 1449.0,823.1 1449.8,826.9C1450.6,830.7 1450.6,834.7 1450.2,838.5C1449.9,842.3 1448.7,846.1 1447.7,849.7C1446.6,853.3 1445.1,856.7 1444.0,860.0Z" stroke="#0f766e" stroke-opacity="0.16" stroke-width="1"/><path d="M1474.7,860.0C1473.3,864.4 1471.9,868.5 1471.3,872.8C1470.6,877.1 1470.6,881.3 1471.0,885.9C1471.3,890.6 1472.5,895.5 1473.3,900.8C1474.0,906.2 1475.4,912.1 1475.5,918.0C1475.7,923.9 1475.7,930.4 1474.2,936.3C1472.7,942.1 1470.3,948.3 1466.5,953.2C1462.8,958.2 1457.6,962.8 1451.8,966.1C1446.0,969.4 1438.7,971.8 1431.6,973.1C1424.5,974.4 1416.5,974.4 1409.1,974.1C1401.7,973.8 1394.1,972.3 1387.2,971.1C1380.3,969.9 1373.8,968.1 1367.6,967.0C1361.4,965.9 1355.8,964.9 1350.0,964.4C1344.2,964.0 1338.7,964.1 1332.8,964.3C1326.9,964.6 1320.9,965.5 1314.5,965.9C1308.2,966.4 1301.3,967.1 1294.6,967.0C1287.8,966.9 1280.6,966.6 1274.0,965.3C1267.3,964.1 1260.6,962.1 1254.6,959.5C1248.6,956.8 1243.0,953.3 1238.1,949.5C1233.3,945.7 1229.1,941.1 1225.4,936.5C1221.7,931.9 1218.7,926.9 1215.9,921.9C1213.1,917.0 1210.8,911.9 1208.7,906.8C1206.7,901.7 1204.8,896.6 1203.5,891.4C1202.2,886.2 1201.0,880.9 1200.8,875.7C1200.7,870.5 1201.0,865.1 1202.6,860.0C1204.2,854.9 1206.8,849.8 1210.5,845.3C1214.3,840.9 1219.5,836.6 1225.2,833.2C1230.9,829.9 1238.1,827.2 1245.0,825.2C1251.8,823.2 1259.7,822.2 1266.4,821.4C1273.2,820.6 1280.0,820.7 1285.5,820.4C1290.9,820.0 1295.6,820.2 1299.2,819.3C1302.8,818.5 1305.0,817.4 1307.0,815.2C1309.0,812.9 1309.7,809.8 1310.9,805.9C1312.2,801.9 1312.8,796.8 1314.6,791.6C1316.3,786.4 1318.3,780.1 1321.4,774.6C1324.5,769.2 1328.6,763.2 1333.3,758.6C1338.1,754.0 1344.0,749.8 1350.0,746.9C1356.0,744.0 1362.9,742.2 1369.5,741.4C1376.1,740.6 1383.0,741.1 1389.5,742.2C1395.9,743.2 1402.2,745.3 1408.2,747.6C1414.2,749.9 1419.8,752.8 1425.2,755.7C1430.7,758.7 1435.9,761.9 1440.9,765.2C1445.9,768.5 1450.9,771.9 1455.4,775.6C1460.0,779.3 1464.5,783.2 1468.3,787.4C1472.0,791.6 1475.5,796.1 1478.0,800.9C1480.5,805.6 1482.3,810.8 1483.2,815.9C1484.1,821.0 1483.9,826.3 1483.4,831.4C1482.8,836.5 1481.1,841.6 1479.7,846.3C1478.2,851.1 1476.1,855.6 1474.7,860.0Z" stroke="#b8892b" stroke-opacity="0.28" stroke-width="1.6"/><path d="M1505.2,860.0C1503.5,865.5 1501.9,870.5 1501.3,875.9C1500.7,881.4 1501.0,886.6 1501.7,892.5C1502.4,898.5 1504.3,904.7 1505.5,911.5C1506.7,918.3 1508.6,925.9 1508.9,933.4C1509.3,940.9 1509.3,949.2 1507.4,956.6C1505.5,964.1 1502.4,971.8 1497.5,978.0C1492.7,984.2 1485.9,989.9 1478.4,993.9C1470.9,997.9 1461.6,1000.6 1452.5,1002.0C1443.4,1003.5 1433.2,1003.2 1423.8,1002.6C1414.5,1002.0 1405.0,999.9 1396.3,998.3C1387.7,996.7 1379.6,994.4 1371.9,993.0C1364.2,991.6 1357.2,990.4 1350.0,989.9C1342.8,989.5 1336.0,989.8 1328.6,990.3C1321.1,990.8 1313.6,992.1 1305.5,992.8C1297.5,993.6 1288.8,994.7 1280.3,994.6C1271.8,994.6 1262.7,994.2 1254.3,992.6C1245.9,991.1 1237.4,988.5 1229.9,985.2C1222.5,981.8 1215.5,977.3 1209.5,972.4C1203.5,967.5 1198.4,961.7 1193.9,955.9C1189.3,950.0 1185.7,943.7 1182.3,937.5C1179.0,931.2 1176.2,924.8 1173.7,918.4C1171.2,912.1 1168.9,905.6 1167.4,899.1C1165.8,892.7 1164.5,886.1 1164.5,879.5C1164.5,873.0 1165.0,866.3 1167.3,860.0C1169.6,853.7 1173.1,847.4 1178.1,841.9C1183.2,836.4 1190.0,831.3 1197.4,827.3C1204.9,823.3 1214.2,820.1 1223.0,817.9C1231.7,815.7 1241.6,814.7 1250.1,813.9C1258.5,813.0 1267.0,813.4 1273.6,813.1C1280.2,812.8 1285.7,813.0 1289.8,811.8C1293.9,810.7 1296.3,809.2 1298.3,806.1C1300.3,803.0 1300.8,798.8 1302.0,793.5C1303.2,788.2 1303.7,781.3 1305.7,774.3C1307.6,767.4 1310.0,759.2 1313.8,752.0C1317.7,744.8 1322.8,737.1 1328.8,731.1C1334.8,725.2 1342.3,719.8 1350.0,716.2C1357.7,712.6 1366.4,710.4 1374.8,709.5C1383.1,708.6 1391.9,709.4 1400.0,710.8C1408.1,712.2 1416.0,715.1 1423.5,718.0C1431.0,721.0 1438.0,724.8 1444.8,728.6C1451.7,732.4 1458.1,736.5 1464.4,740.7C1470.7,744.9 1476.9,749.2 1482.6,753.9C1488.3,758.6 1493.9,763.5 1498.6,768.8C1503.2,774.1 1507.5,779.9 1510.5,785.9C1513.5,791.9 1515.6,798.4 1516.6,804.8C1517.5,811.2 1517.2,818.0 1516.3,824.4C1515.4,830.7 1513.2,837.1 1511.4,843.0C1509.5,848.9 1506.8,854.5 1505.2,860.0Z" stroke="#0f766e" stroke-opacity="0.16" stroke-width="1"/><path d="M1535.4,860.0C1533.5,866.6 1531.8,872.6 1531.3,879.1C1530.9,885.6 1531.7,892.0 1532.8,899.2C1534.0,906.4 1536.6,914.1 1538.4,922.4C1540.1,930.8 1542.7,940.1 1543.2,949.3C1543.8,958.5 1543.9,968.6 1541.6,977.6C1539.3,986.6 1535.2,996.0 1529.2,1003.4C1523.2,1010.8 1514.8,1017.5 1505.5,1022.1C1496.2,1026.7 1484.6,1029.6 1473.5,1031.1C1462.3,1032.6 1449.9,1031.9 1438.5,1030.9C1427.1,1030.0 1415.7,1027.2 1405.3,1025.1C1394.9,1023.1 1385.3,1020.2 1376.1,1018.6C1366.9,1016.9 1358.6,1015.6 1350.0,1015.2C1341.4,1014.8 1333.2,1015.5 1324.3,1016.3C1315.4,1017.1 1306.2,1018.9 1296.4,1020.0C1286.7,1021.0 1276.2,1022.5 1265.8,1022.6C1255.5,1022.6 1244.4,1022.2 1234.3,1020.3C1224.2,1018.4 1214.0,1015.3 1205.0,1011.1C1196.1,1007.0 1187.8,1001.4 1180.7,995.4C1173.6,989.4 1167.6,982.3 1162.3,975.2C1157.0,968.1 1152.8,960.4 1148.9,952.9C1145.0,945.4 1141.7,937.6 1138.9,930.0C1136.0,922.3 1133.4,914.6 1131.7,906.8C1130.0,899.0 1128.5,891.1 1128.8,883.3C1129.0,875.5 1129.9,867.4 1133.0,860.0C1136.0,852.6 1140.6,845.0 1147.0,838.6C1153.4,832.2 1162.1,826.3 1171.4,821.7C1180.7,817.1 1192.1,813.7 1202.9,811.2C1213.6,808.8 1225.6,807.9 1235.7,807.2C1245.8,806.5 1255.7,807.2 1263.4,806.8C1271.0,806.5 1277.1,806.8 1281.6,805.3C1286.1,803.8 1288.3,801.7 1290.2,797.7C1292.1,793.7 1292.1,788.0 1293.1,781.2C1294.2,774.4 1294.4,765.5 1296.5,756.7C1298.6,747.9 1301.3,737.5 1305.9,728.4C1310.5,719.4 1316.7,709.9 1324.1,702.5C1331.4,695.2 1340.6,688.6 1350.0,684.3C1359.4,679.9 1370.1,677.4 1380.2,676.5C1390.3,675.5 1400.9,676.7 1410.8,678.6C1420.6,680.5 1430.1,684.1 1439.1,687.9C1448.1,691.6 1456.6,696.3 1464.8,701.0C1473.0,705.6 1480.7,710.7 1488.3,715.8C1495.9,721.0 1503.3,726.2 1510.1,731.9C1516.9,737.6 1523.6,743.5 1529.2,750.0C1534.7,756.5 1539.7,763.5 1543.2,770.8C1546.6,778.1 1548.9,786.0 1549.9,793.8C1550.9,801.5 1550.2,809.7 1549.0,817.3C1547.8,825.0 1545.0,832.6 1542.7,839.7C1540.5,846.8 1537.3,853.4 1535.4,860.0Z" stroke="#0f766e" stroke-opacity="0.16" stroke-width="1"/><path d="M1565.3,860.0C1563.3,867.6 1561.6,874.6 1561.4,882.3C1561.3,889.9 1562.6,897.4 1564.4,906.0C1566.2,914.5 1569.7,923.7 1572.1,933.6C1574.4,943.5 1577.8,954.6 1578.6,965.6C1579.3,976.5 1579.5,988.5 1576.7,999.2C1573.9,1009.8 1568.9,1020.7 1561.6,1029.3C1554.3,1037.9 1544.0,1045.5 1532.9,1050.6C1521.7,1055.8 1507.8,1058.8 1494.5,1060.2C1481.2,1061.6 1466.5,1060.5 1453.1,1059.0C1439.7,1057.6 1426.3,1054.1 1414.2,1051.5C1402.0,1049.0 1390.9,1045.6 1380.2,1043.7C1369.5,1041.8 1360.0,1040.4 1350.0,1040.2C1340.0,1039.9 1330.5,1041.0 1320.0,1042.2C1309.6,1043.4 1298.7,1045.9 1287.2,1047.4C1275.8,1048.8 1263.3,1050.7 1251.2,1050.9C1239.0,1051.1 1226.0,1050.6 1214.1,1048.3C1202.2,1046.1 1190.3,1042.3 1179.9,1037.3C1169.5,1032.4 1160.0,1025.7 1151.8,1018.5C1143.6,1011.4 1136.8,1002.9 1130.8,994.5C1124.8,986.2 1120.1,977.1 1115.7,968.2C1111.3,959.4 1107.6,950.3 1104.5,941.4C1101.3,932.4 1098.4,923.4 1096.6,914.3C1094.8,905.3 1093.3,896.0 1093.8,887.0C1094.3,877.9 1095.8,868.6 1099.7,860.0C1103.6,851.4 1109.5,842.7 1117.4,835.5C1125.3,828.3 1135.8,821.5 1147.1,816.5C1158.3,811.5 1172.1,807.8 1184.8,805.3C1197.5,802.8 1211.7,802.1 1223.3,801.5C1235.0,800.9 1246.3,801.9 1254.8,801.6C1263.4,801.3 1269.9,801.6 1274.5,799.6C1279.2,797.7 1281.0,794.9 1282.6,789.8C1284.2,784.6 1283.5,777.4 1284.2,768.9C1285.0,760.3 1284.8,749.3 1287.0,738.4C1289.3,727.6 1292.3,714.8 1297.7,703.8C1303.0,692.9 1310.4,681.4 1319.2,672.6C1327.9,663.8 1338.9,656.1 1350.0,651.1C1361.1,646.1 1373.8,643.3 1385.8,642.4C1397.8,641.5 1410.3,643.1 1421.8,645.6C1433.4,648.0 1444.5,652.5 1455.1,657.1C1465.6,661.7 1475.4,667.4 1485.0,672.9C1494.6,678.5 1503.7,684.5 1512.5,690.6C1521.3,696.7 1530.0,702.9 1537.9,709.7C1545.8,716.4 1553.6,723.4 1560.0,731.1C1566.3,738.8 1572.1,747.0 1575.9,755.6C1579.8,764.3 1582.3,773.6 1583.2,782.7C1584.1,791.8 1583.1,801.4 1581.5,810.4C1579.9,819.3 1576.5,828.2 1573.8,836.4C1571.1,844.7 1567.4,852.4 1565.3,860.0Z" stroke="#0f766e" stroke-opacity="0.16" stroke-width="1"/><path d="M1595.1,860.0C1593.0,868.7 1591.4,876.6 1591.7,885.5C1591.9,894.3 1594.0,902.9 1596.5,912.8C1599.0,922.8 1603.6,933.5 1606.7,945.1C1609.8,956.6 1613.9,969.7 1614.9,982.4C1615.9,995.1 1616.1,1009.1 1612.8,1021.3C1609.4,1033.5 1603.4,1046.0 1594.7,1055.7C1586.0,1065.4 1573.7,1073.9 1560.5,1079.5C1547.3,1085.1 1531.0,1088.1 1515.5,1089.4C1500.0,1090.6 1482.9,1088.8 1467.4,1086.8C1452.0,1084.8 1436.7,1080.5 1422.8,1077.5C1409.0,1074.4 1396.4,1070.5 1384.3,1068.4C1372.2,1066.3 1361.4,1064.9 1350.0,1064.9C1338.6,1064.9 1327.7,1066.5 1315.7,1068.2C1303.7,1069.9 1291.2,1073.1 1278.0,1075.0C1264.7,1076.9 1250.4,1079.3 1236.3,1079.6C1222.2,1079.9 1207.2,1079.3 1193.6,1076.7C1180.0,1074.0 1166.4,1069.6 1154.6,1063.7C1142.8,1057.9 1132.1,1050.0 1122.9,1041.7C1113.7,1033.4 1106.1,1023.5 1099.5,1013.8C1092.8,1004.1 1087.6,993.6 1082.8,983.4C1078.0,973.2 1074.0,962.9 1070.5,952.6C1067.1,942.3 1063.9,932.1 1062.1,921.7C1060.3,911.4 1058.8,900.9 1059.7,890.6C1060.6,880.3 1062.7,869.7 1067.6,860.0C1072.5,850.3 1079.8,840.6 1089.3,832.5C1098.8,824.5 1111.5,817.1 1124.7,811.7C1138.0,806.3 1154.2,802.5 1168.9,800.0C1183.6,797.5 1199.8,797.1 1212.9,796.7C1226.1,796.3 1238.7,797.7 1247.9,797.3C1257.2,797.0 1263.9,797.3 1268.5,794.8C1273.0,792.2 1274.3,788.6 1275.4,782.2C1276.5,775.8 1274.9,766.8 1275.2,756.4C1275.5,745.9 1274.9,732.4 1277.2,719.3C1279.5,706.3 1282.9,691.0 1289.0,678.0C1295.2,665.0 1303.8,651.5 1314.0,641.2C1324.2,631.0 1337.1,622.2 1350.0,616.5C1362.9,610.8 1377.8,607.9 1391.6,607.1C1405.5,606.3 1419.9,608.6 1433.2,611.7C1446.5,614.7 1459.3,620.2 1471.3,625.7C1483.4,631.2 1494.6,637.9 1505.5,644.5C1516.5,651.0 1526.9,658.0 1537.0,665.1C1547.0,672.2 1557.0,679.4 1566.0,687.2C1575.0,695.0 1583.9,703.2 1591.0,712.0C1598.2,720.9 1604.6,730.5 1608.8,740.5C1613.0,750.4 1615.6,761.2 1616.4,771.7C1617.2,782.2 1615.7,793.2 1613.7,803.5C1611.7,813.7 1607.6,823.8 1604.5,833.2C1601.4,842.6 1597.3,851.3 1595.1,860.0Z" stroke="#b8892b" stroke-opacity="0.28" stroke-width="1.6"/><path d="M1624.8,860.0C1622.6,869.8 1621.3,878.7 1622.1,888.7C1622.8,898.6 1625.8,908.5 1629.2,919.8C1632.6,931.2 1638.4,943.5 1642.2,956.8C1646.1,970.1 1651.1,985.1 1652.3,999.6C1653.6,1014.2 1653.8,1030.2 1649.8,1044.0C1645.8,1057.8 1638.6,1071.9 1628.3,1082.7C1618.1,1093.4 1603.7,1102.6 1588.4,1108.6C1573.1,1114.5 1554.3,1117.5 1536.5,1118.4C1518.7,1119.3 1499.1,1116.8 1481.6,1114.2C1464.1,1111.6 1446.9,1106.4 1431.3,1102.8C1415.8,1099.2 1401.8,1094.8 1388.3,1092.6C1374.7,1090.3 1362.8,1089.1 1350.0,1089.4C1337.2,1089.6 1325.0,1091.9 1311.5,1094.2C1297.9,1096.5 1283.7,1100.5 1268.6,1102.9C1253.6,1105.3 1237.2,1108.2 1221.3,1108.6C1205.3,1109.1 1188.3,1108.4 1172.9,1105.3C1157.6,1102.3 1142.3,1097.0 1129.1,1090.3C1115.9,1083.6 1104.1,1074.4 1093.9,1064.9C1083.8,1055.3 1075.6,1044.0 1068.3,1032.9C1061.1,1021.8 1055.5,1010.0 1050.3,998.4C1045.1,986.9 1040.9,975.2 1037.2,963.6C1033.6,952.1 1030.2,940.5 1028.4,928.9C1026.6,917.3 1025.2,905.5 1026.6,894.1C1028.1,882.6 1030.8,870.7 1036.9,860.0C1042.9,849.3 1051.7,838.5 1063.0,829.8C1074.2,821.0 1089.1,813.1 1104.4,807.4C1119.8,801.6 1138.4,797.8 1155.1,795.4C1171.8,793.0 1190.0,793.1 1204.6,792.8C1219.1,792.6 1232.7,794.4 1242.5,794.0C1252.3,793.6 1259.0,793.8 1263.3,790.6C1267.6,787.4 1267.9,782.7 1268.4,774.9C1268.8,767.0 1266.2,756.1 1265.9,743.5C1265.6,730.9 1264.5,714.7 1266.8,699.3C1269.1,683.8 1272.9,665.9 1279.9,650.7C1286.9,635.6 1296.9,620.0 1308.6,608.3C1320.3,596.6 1335.2,586.8 1350.0,580.5C1364.8,574.2 1381.8,571.3 1397.6,570.7C1413.4,570.1 1429.8,573.0 1444.8,576.9C1459.9,580.7 1474.3,587.3 1487.9,593.7C1501.5,600.1 1514.1,608.0 1526.4,615.6C1538.7,623.2 1550.4,631.1 1561.7,639.2C1573.1,647.4 1584.3,655.6 1594.3,664.5C1604.4,673.5 1614.4,682.7 1622.3,692.9C1630.2,703.0 1637.2,714.0 1641.7,725.3C1646.2,736.6 1648.8,748.9 1649.4,760.8C1650.1,772.7 1648.0,785.1 1645.6,796.6C1643.2,808.2 1638.4,819.4 1634.9,830.0C1631.4,840.6 1626.9,850.2 1624.8,860.0Z" stroke="#0f766e" stroke-opacity="0.16" stroke-width="1"/><path d="M1654.3,860.0C1652.2,870.8 1651.4,880.7 1652.8,891.9C1654.2,903.1 1658.3,914.2 1662.6,927.0C1667.0,939.9 1674.1,953.9 1678.8,969.0C1683.5,984.0 1689.4,1001.1 1690.9,1017.4C1692.4,1033.8 1692.4,1051.9 1687.7,1067.3C1683.0,1082.7 1674.4,1098.3 1662.6,1110.1C1650.7,1121.8 1634.1,1131.7 1616.5,1137.9C1599.0,1144.1 1577.5,1146.7 1557.3,1147.2C1537.1,1147.8 1515.2,1144.4 1495.5,1141.1C1475.9,1137.8 1456.9,1131.7 1439.6,1127.6C1422.4,1123.4 1407.1,1118.6 1392.2,1116.2C1377.2,1113.9 1364.2,1112.9 1350.0,1113.6C1335.8,1114.3 1322.3,1117.3 1307.2,1120.2C1292.0,1123.2 1276.1,1128.1 1259.2,1131.1C1242.3,1134.0 1223.9,1137.5 1206.0,1138.1C1188.2,1138.6 1169.1,1137.8 1152.0,1134.3C1135.0,1130.8 1118.0,1124.7 1103.5,1117.0C1089.0,1109.2 1076.1,1098.8 1065.1,1087.9C1054.1,1077.1 1045.3,1064.3 1037.5,1051.8C1029.8,1039.4 1023.9,1026.1 1018.4,1013.2C1012.9,1000.3 1008.4,987.3 1004.6,974.5C1000.8,961.6 997.2,948.8 995.6,936.0C993.9,923.1 992.7,910.1 994.7,897.4C996.7,884.8 1000.3,871.7 1007.6,860.0C1014.9,848.3 1025.3,836.6 1038.4,827.2C1051.6,817.8 1068.8,809.4 1086.3,803.5C1103.8,797.5 1124.9,793.8 1143.5,791.6C1162.2,789.3 1182.3,789.9 1198.1,789.9C1214.0,789.9 1228.4,792.0 1238.5,791.6C1248.6,791.1 1255.0,791.0 1258.8,787.0C1262.6,783.0 1261.8,777.1 1261.4,767.6C1260.9,758.1 1257.1,744.9 1256.1,729.9C1255.2,715.0 1253.4,696.0 1255.8,678.0C1258.1,660.0 1262.4,639.3 1270.3,621.9C1278.1,604.5 1289.6,586.9 1302.9,573.7C1316.2,560.6 1333.2,549.7 1350.0,542.9C1366.8,536.1 1386.0,533.3 1403.8,533.0C1421.6,532.7 1439.9,536.5 1456.8,541.2C1473.6,545.9 1489.6,553.6 1504.8,561.1C1519.9,568.6 1533.9,577.6 1547.6,586.3C1561.2,594.9 1574.2,603.9 1586.8,613.1C1599.4,622.4 1611.8,631.6 1622.9,641.6C1634.1,651.7 1645.1,662.2 1653.7,673.6C1662.3,685.0 1669.8,697.4 1674.6,710.1C1679.3,722.8 1681.8,736.6 1682.2,749.9C1682.7,763.2 1680.0,777.0 1677.2,789.9C1674.3,802.7 1668.8,815.1 1664.9,826.8C1661.1,838.5 1656.3,849.2 1654.3,860.0Z" stroke="#0f766e" stroke-opacity="0.16" stroke-width="1"/><path d="M288.1,880.0C287.9,881.0 287.5,881.9 287.1,882.9C286.7,883.8 286.1,884.6 285.7,885.5C285.2,886.4 284.7,887.2 284.3,888.0C283.9,888.9 283.6,889.8 283.3,890.8C283.0,891.7 282.9,892.8 282.6,893.9C282.3,894.9 282.1,896.1 281.6,897.3C281.1,898.4 280.6,899.6 279.8,900.6C279.0,901.6 278.0,902.6 276.8,903.3C275.7,904.0 274.2,904.5 272.8,904.8C271.4,905.1 269.8,905.1 268.4,905.0C266.9,904.9 265.4,904.5 264.0,904.2C262.6,903.9 261.3,903.4 260.0,903.2C258.7,902.9 257.6,902.7 256.3,902.7C255.0,902.7 253.7,902.8 252.3,903.1C250.8,903.3 249.3,903.8 247.5,904.1C245.8,904.5 243.8,905.0 241.8,905.2C239.8,905.5 237.6,905.7 235.5,905.5C233.5,905.4 231.4,905.0 229.6,904.3C227.8,903.7 226.1,902.7 224.9,901.6C223.6,900.4 222.7,899.0 222.1,897.5C221.4,896.1 221.2,894.4 221.1,892.9C221.1,891.3 221.3,889.7 221.6,888.2C221.8,886.7 222.3,885.3 222.7,883.9C223.0,882.6 223.4,881.3 223.8,880.0C224.2,878.7 224.5,877.5 224.9,876.3C225.3,875.1 225.6,873.9 226.1,872.7C226.7,871.6 227.2,870.4 228.0,869.4C228.8,868.4 229.7,867.4 230.8,866.5C231.8,865.6 233.0,864.9 234.2,864.2C235.4,863.5 236.8,862.9 238.0,862.4C239.2,861.8 240.4,861.3 241.5,860.7C242.6,860.1 243.6,859.5 244.6,858.7C245.6,857.9 246.5,856.9 247.5,855.9C248.5,854.8 249.5,853.5 250.7,852.3C252.0,851.2 253.3,849.8 254.8,848.7C256.4,847.6 258.2,846.5 260.0,845.8C261.8,845.1 263.9,844.6 265.8,844.6C267.7,844.6 269.8,844.9 271.5,845.6C273.3,846.3 274.9,847.4 276.2,848.6C277.6,849.9 278.6,851.5 279.4,853.1C280.3,854.6 280.8,856.3 281.2,857.9C281.7,859.4 281.8,861.0 282.1,862.3C282.4,863.7 282.6,864.8 282.9,865.9C283.2,867.0 283.6,868.0 284.1,868.9C284.5,869.8 285.1,870.6 285.6,871.5C286.2,872.4 286.8,873.3 287.2,874.2C287.6,875.1 288.0,876.1 288.1,877.0C288.3,878.0 288.3,879.0 288.1,880.0Z" stroke="#0f766e" stroke-opacity="0.16" stroke-width="1"/><path d="M315.3,880.0C314.9,881.9 314.1,883.8 313.3,885.6C312.5,887.4 311.4,889.1 310.5,890.8C309.6,892.5 308.6,894.1 307.9,895.9C307.2,897.6 306.7,899.4 306.2,901.4C305.8,903.3 305.6,905.4 305.1,907.7C304.6,909.9 304.2,912.4 303.3,914.7C302.5,917.0 301.4,919.4 299.8,921.5C298.2,923.5 296.1,925.5 293.8,926.8C291.5,928.2 288.6,929.2 285.7,929.7C282.9,930.2 279.7,930.1 276.7,929.8C273.7,929.6 270.7,928.8 267.9,928.1C265.1,927.5 262.6,926.6 260.0,926.1C257.4,925.7 255.1,925.3 252.5,925.3C250.0,925.4 247.4,925.8 244.5,926.4C241.5,927.0 238.2,928.1 234.6,929.0C231.0,929.8 227.0,930.9 222.9,931.5C218.8,932.0 214.2,932.4 210.0,932.1C205.9,931.8 201.5,931.0 197.9,929.7C194.4,928.3 191.0,926.2 188.6,923.8C186.1,921.5 184.3,918.5 183.2,915.5C182.1,912.5 181.8,909.1 181.7,905.9C181.7,902.8 182.4,899.5 183.0,896.5C183.6,893.5 184.6,890.6 185.4,887.9C186.2,885.1 187.0,882.5 187.8,880.0C188.6,877.5 189.2,875.0 190.0,872.6C190.7,870.2 191.4,867.8 192.5,865.5C193.5,863.2 194.7,860.9 196.3,858.9C197.8,856.8 199.7,854.8 201.8,853.1C203.9,851.4 206.4,849.9 208.8,848.6C211.2,847.2 213.9,846.2 216.3,845.0C218.7,843.9 221.1,842.9 223.2,841.7C225.4,840.4 227.3,839.1 229.2,837.4C231.2,835.7 232.9,833.7 234.9,831.4C236.9,829.2 238.8,826.5 241.3,824.0C243.7,821.5 246.4,818.6 249.5,816.4C252.7,814.1 256.3,811.9 260.0,810.5C263.7,809.2 267.9,808.2 271.8,808.3C275.7,808.3 279.8,809.1 283.2,810.6C286.7,812.1 289.9,814.6 292.5,817.3C295.0,819.9 297.0,823.3 298.6,826.5C300.1,829.8 301.0,833.3 301.7,836.5C302.5,839.6 302.7,842.7 303.2,845.4C303.7,848.1 304.0,850.5 304.6,852.6C305.2,854.8 306.0,856.5 307.0,858.3C307.9,860.1 309.1,861.7 310.2,863.4C311.3,865.1 312.6,866.7 313.4,868.5C314.3,870.3 315.1,872.3 315.4,874.2C315.7,876.1 315.6,878.1 315.3,880.0Z" stroke="#0f766e" stroke-opacity="0.16" stroke-width="1"/><path d="M341.6,880.0C341.0,882.8 339.8,885.6 338.6,888.3C337.4,890.9 335.8,893.4 334.5,896.0C333.2,898.5 331.9,900.9 331.0,903.5C330.0,906.2 329.4,908.8 328.9,911.8C328.3,914.8 328.2,918.1 327.6,921.5C327.0,924.9 326.6,928.7 325.3,932.2C324.0,935.8 322.4,939.5 320.1,942.6C317.7,945.7 314.5,948.6 311.0,950.6C307.4,952.6 303.0,954.0 298.7,954.7C294.4,955.4 289.5,955.1 285.0,954.7C280.5,954.2 276.0,952.9 271.8,951.9C267.7,951.0 263.8,949.6 260.0,948.9C256.2,948.3 252.7,947.8 248.8,948.1C244.9,948.3 241.0,949.2 236.5,950.3C231.9,951.4 226.9,953.2 221.4,954.6C215.8,956.1 209.5,957.9 203.1,958.8C196.8,959.7 189.7,960.4 183.4,959.9C177.0,959.4 170.4,958.2 165.0,956.0C159.7,953.8 154.7,950.5 151.1,946.8C147.5,943.1 145.0,938.4 143.5,933.8C141.9,929.2 141.7,924.0 141.8,919.2C142.0,914.3 143.2,909.4 144.3,904.8C145.4,900.2 147.0,895.9 148.3,891.8C149.6,887.6 150.9,883.8 152.0,880.0C153.2,876.2 154.1,872.6 155.3,869.0C156.5,865.4 157.5,861.8 159.1,858.4C160.7,854.9 162.4,851.5 164.8,848.5C167.2,845.4 170.1,842.5 173.2,839.9C176.4,837.4 180.2,835.2 183.8,833.2C187.4,831.2 191.4,829.7 195.0,828.0C198.5,826.2 202.0,824.8 205.2,822.8C208.3,820.8 211.1,818.8 213.9,816.1C216.7,813.4 219.1,810.2 222.0,806.7C225.0,803.1 227.8,798.9 231.5,794.9C235.2,791.0 239.3,786.5 244.0,783.1C248.8,779.6 254.4,776.1 260.0,774.2C265.6,772.2 272.1,770.9 277.9,771.1C283.8,771.3 289.9,772.8 295.1,775.3C300.2,777.8 305.0,781.8 308.7,786.0C312.4,790.2 315.2,795.6 317.3,800.6C319.4,805.6 320.4,811.2 321.4,816.0C322.4,820.8 322.6,825.4 323.2,829.4C323.8,833.5 324.2,836.9 325.1,840.0C326.0,843.2 327.2,845.7 328.6,848.3C330.1,850.9 332.0,853.1 333.7,855.6C335.4,858.0 337.4,860.5 338.7,863.1C340.0,865.8 341.2,868.6 341.7,871.4C342.2,874.2 342.1,877.2 341.6,880.0Z" stroke="#0f766e" stroke-opacity="0.16" stroke-width="1"/><path d="M367.0,880.0C366.3,883.7 364.6,887.4 363.1,890.9C361.5,894.3 359.4,897.6 357.8,901.0C356.2,904.3 354.6,907.4 353.5,911.0C352.4,914.5 351.9,918.1 351.4,922.2C350.8,926.3 350.9,930.8 350.2,935.4C349.6,940.0 349.2,945.3 347.6,950.1C346.0,954.8 343.9,960.0 340.7,964.1C337.5,968.2 333.2,972.1 328.4,974.7C323.6,977.4 317.6,979.1 311.7,979.9C305.9,980.7 299.3,980.2 293.3,979.5C287.3,978.8 281.3,976.9 275.7,975.6C270.2,974.3 265.1,972.5 260.0,971.7C254.9,970.9 250.3,970.5 245.0,971.0C239.7,971.5 234.5,973.0 228.3,974.7C222.0,976.4 215.2,979.2 207.6,981.3C199.9,983.4 191.2,986.1 182.5,987.3C173.9,988.6 164.2,989.5 155.6,988.9C147.0,988.2 138.0,986.4 130.9,983.3C123.7,980.3 117.2,975.6 112.6,970.5C107.9,965.4 104.8,958.8 103.0,952.5C101.2,946.2 101.2,939.0 101.7,932.5C102.1,925.9 104.0,919.2 105.6,913.1C107.3,907.0 109.6,901.2 111.4,895.6C113.3,890.1 115.0,885.0 116.6,880.0C118.2,875.0 119.4,870.1 120.9,865.4C122.5,860.6 123.8,855.8 126.0,851.3C128.1,846.7 130.5,842.2 133.7,838.1C136.9,834.1 140.8,830.2 145.1,826.9C149.3,823.6 154.4,820.8 159.2,818.1C164.0,815.5 169.3,813.5 174.0,811.2C178.7,808.9 183.2,806.9 187.3,804.2C191.3,801.4 194.8,798.5 198.4,794.7C202.1,790.9 205.1,786.4 209.0,781.4C212.8,776.5 216.6,770.5 221.5,765.1C226.4,759.6 232.0,753.4 238.4,748.7C244.8,744.0 252.4,739.4 260.0,736.8C267.6,734.2 276.3,732.7 284.2,733.2C292.0,733.7 300.2,736.1 307.0,739.8C313.7,743.4 319.9,749.1 324.7,755.1C329.4,761.0 332.9,768.6 335.4,775.5C338.0,782.4 339.1,789.9 340.2,796.4C341.3,802.9 341.3,809.1 341.9,814.4C342.6,819.8 343.0,824.2 344.2,828.3C345.4,832.4 347.1,835.5 349.1,838.9C351.1,842.2 353.8,845.0 356.1,848.1C358.5,851.3 361.2,854.5 363.1,857.9C364.9,861.3 366.5,865.0 367.2,868.7C367.8,872.4 367.6,876.3 367.0,880.0Z" stroke="#b8892b" stroke-opacity="0.28" stroke-width="1.6"/><path d="M391.5,880.0C390.7,884.5 388.6,889.0 386.7,893.3C384.9,897.6 382.2,901.6 380.4,905.8C378.6,910.0 376.8,913.9 375.7,918.3C374.6,922.8 374.2,927.4 373.8,932.6C373.4,937.7 373.7,943.5 373.1,949.5C372.5,955.4 372.2,962.1 370.2,968.2C368.3,974.3 365.7,980.8 361.7,986.0C357.6,991.2 352.2,996.0 346.0,999.2C339.9,1002.4 332.3,1004.5 324.9,1005.3C317.5,1006.2 309.2,1005.3 301.6,1004.3C294.1,1003.3 286.5,1000.8 279.6,999.2C272.7,997.5 266.4,995.3 260.0,994.5C253.6,993.6 247.9,993.3 241.2,994.2C234.5,995.1 227.9,997.3 219.9,999.8C211.9,1002.3 203.0,1006.1 193.2,1009.0C183.4,1011.9 172.1,1015.5 161.0,1017.2C149.9,1018.9 137.5,1020.0 126.6,1019.1C115.6,1018.2 104.4,1015.7 95.4,1011.7C86.5,1007.6 78.5,1001.5 72.9,994.8C67.4,988.1 63.8,979.7 61.9,971.5C59.9,963.3 60.4,954.2 61.3,945.9C62.1,937.5 64.9,929.1 67.2,921.3C69.5,913.6 72.6,906.4 75.0,899.5C77.4,892.6 79.6,886.3 81.6,880.0C83.6,873.7 85.1,867.7 87.0,861.8C88.9,855.8 90.6,849.9 93.2,844.3C95.9,838.6 98.9,833.0 103.0,828.0C107.0,822.9 112.0,818.2 117.3,814.1C122.7,810.0 129.1,806.6 135.1,803.3C141.1,800.1 147.6,797.6 153.4,794.7C159.1,791.7 164.6,789.2 169.5,785.7C174.4,782.1 178.6,778.2 182.9,773.2C187.3,768.2 190.9,762.2 195.6,755.7C200.4,749.2 205.1,741.4 211.2,734.3C217.4,727.2 224.4,719.3 232.6,713.3C240.7,707.3 250.3,701.5 260.0,698.4C269.7,695.3 280.7,693.7 290.5,694.7C300.3,695.6 310.6,699.1 318.9,704.1C327.2,709.1 334.8,716.8 340.4,724.6C346.1,732.5 350.0,742.3 352.9,751.2C355.8,760.1 356.8,769.8 357.9,778.0C358.9,786.2 358.7,793.9 359.4,800.5C360.1,807.1 360.5,812.5 362.0,817.4C363.5,822.3 365.7,826.0 368.3,830.0C370.9,833.9 374.4,837.3 377.5,841.1C380.5,844.9 384.1,848.7 386.5,852.9C388.9,857.1 391.0,861.6 391.8,866.1C392.6,870.6 392.4,875.5 391.5,880.0Z" stroke="#0f766e" stroke-opacity="0.16" stroke-width="1"/><path d="M415.3,880.0C414.3,885.4 411.8,890.7 409.7,895.8C407.5,900.9 404.5,905.6 402.5,910.5C400.5,915.5 398.6,920.2 397.6,925.6C396.5,931.0 396.5,936.6 396.3,942.9C396.1,949.3 396.9,956.4 396.4,963.7C395.9,971.0 395.6,979.3 393.4,986.7C391.2,994.2 388.0,1002.1 383.1,1008.3C378.2,1014.6 371.5,1020.3 364.0,1024.1C356.5,1027.9 347.1,1030.1 338.1,1030.9C329.1,1031.8 319.1,1030.5 310.0,1029.2C300.8,1027.8 291.8,1024.7 283.5,1022.7C275.2,1020.7 267.7,1018.1 260.0,1017.3C252.3,1016.5 245.4,1016.5 237.3,1017.9C229.2,1019.3 221.0,1022.5 211.2,1025.8C201.3,1029.2 190.3,1034.2 178.2,1038.0C166.1,1041.8 152.1,1046.3 138.5,1048.4C124.8,1050.5 109.6,1051.9 96.3,1050.7C83.0,1049.4 69.4,1046.2 58.7,1041.0C48.1,1035.9 38.7,1028.1 32.3,1019.8C25.9,1011.4 22.1,1000.8 20.2,990.8C18.3,980.7 19.4,969.5 20.8,959.3C22.3,949.1 26.0,938.8 29.0,929.5C32.0,920.2 36.0,911.5 39.0,903.3C42.0,895.0 44.7,887.5 47.1,880.0C49.5,872.5 51.2,865.4 53.5,858.3C55.8,851.1 57.7,844.0 60.9,837.3C64.1,830.6 67.8,823.9 72.7,817.9C77.5,812.0 83.6,806.4 90.1,801.5C96.5,796.7 104.2,792.6 111.4,788.8C118.6,784.9 126.3,782.0 133.1,778.5C139.8,774.9 146.2,771.8 151.9,767.3C157.6,762.8 162.3,757.9 167.3,751.5C172.3,745.2 176.5,737.5 182.0,729.4C187.6,721.2 193.2,711.4 200.6,702.6C208.0,693.9 216.7,684.0 226.6,676.8C236.5,669.5 248.3,662.6 260.0,659.1C271.7,655.6 285.1,654.1 296.9,655.6C308.7,657.2 321.0,662.0 330.8,668.5C340.7,675.0 349.4,684.9 355.9,694.8C362.3,704.8 366.6,717.1 369.7,728.0C372.7,739.0 373.4,750.8 374.4,760.8C375.3,770.7 374.7,779.9 375.4,787.7C376.1,795.4 376.6,801.7 378.4,807.3C380.2,813.0 383.0,817.2 386.2,821.7C389.4,826.2 394.0,829.9 397.8,834.3C401.6,838.7 406.1,843.2 409.1,848.0C412.0,852.9 414.6,858.3 415.6,863.6C416.6,868.9 416.3,874.6 415.3,880.0Z" stroke="#0f766e" stroke-opacity="0.16" stroke-width="1"/><path d="M438.4,880.0C437.3,886.2 434.3,892.2 431.9,898.1C429.5,904.0 426.2,909.4 424.1,915.2C422.0,921.0 420.2,926.4 419.3,932.8C418.5,939.2 418.8,945.8 419.0,953.4C419.1,961.0 420.4,969.6 420.1,978.3C419.8,987.0 419.6,996.9 417.1,1005.7C414.6,1014.5 410.9,1023.9 405.0,1031.2C399.2,1038.5 391.2,1045.1 382.2,1049.4C373.3,1053.6 362.2,1056.0 351.5,1056.8C340.9,1057.5 329.0,1055.8 318.3,1054.1C307.6,1052.3 297.1,1048.5 287.4,1046.2C277.6,1043.9 269.0,1041.0 260.0,1040.4C251.0,1039.7 243.0,1040.1 233.3,1042.1C223.7,1044.2 213.9,1048.4 202.1,1052.8C190.3,1057.2 177.0,1063.6 162.5,1068.3C147.9,1073.0 131.1,1078.6 114.9,1081.1C98.6,1083.7 80.4,1085.2 64.8,1083.5C49.1,1081.9 33.1,1077.7 20.8,1071.3C8.5,1065.0 -2.1,1055.4 -9.2,1045.2C-16.3,1035.0 -20.1,1022.3 -21.9,1010.2C-23.6,998.1 -21.7,984.7 -19.5,972.6C-17.4,960.5 -12.6,948.5 -8.7,937.6C-4.9,926.7 -0.1,916.6 3.6,907.0C7.3,897.4 10.4,888.7 13.2,880.0C16.1,871.3 17.9,863.0 20.5,854.8C23.2,846.5 25.3,838.3 29.1,830.5C32.8,822.7 37.2,814.9 42.9,808.0C48.6,801.2 55.8,794.7 63.3,789.2C70.9,783.6 79.9,779.0 88.2,774.5C96.5,770.1 105.4,766.8 113.1,762.5C120.8,758.2 128.0,754.5 134.3,749.0C140.7,743.5 145.9,737.4 151.5,729.6C157.1,721.9 161.7,712.4 168.1,702.5C174.4,692.5 180.9,680.5 189.7,670.0C198.4,659.5 208.6,647.7 220.4,639.2C232.1,630.7 246.2,622.7 260.0,618.9C273.8,615.1 289.6,613.8 303.4,616.2C317.2,618.6 331.4,624.9 342.7,633.2C353.9,641.4 363.7,653.7 370.9,665.9C378.0,678.0 382.4,692.9 385.5,706.1C388.6,719.2 388.9,733.2 389.6,744.8C390.4,756.5 389.4,767.1 390.0,776.0C390.6,784.9 391.2,791.8 393.3,798.2C395.5,804.5 398.9,809.0 402.9,814.0C406.9,819.0 412.4,823.0 417.1,827.9C421.7,832.8 427.2,837.8 430.8,843.4C434.4,848.9 437.4,855.1 438.7,861.2C439.9,867.3 439.5,873.8 438.4,880.0Z" stroke="#0f766e" stroke-opacity="0.16" stroke-width="1"/><path d="M460.8,880.0C459.6,886.9 456.2,893.8 453.6,900.4C451.0,907.0 447.4,913.1 445.3,919.7C443.2,926.3 441.6,932.6 441.0,940.0C440.5,947.4 441.4,955.2 442.0,964.1C442.6,972.9 444.5,983.0 444.4,993.2C444.3,1003.4 444.4,1015.0 441.5,1025.2C438.7,1035.5 434.3,1046.3 427.5,1054.7C420.7,1063.0 411.3,1070.4 400.8,1075.2C390.4,1079.9 377.4,1082.2 365.0,1082.9C352.7,1083.5 339.0,1081.2 326.7,1079.0C314.4,1076.9 302.4,1072.4 291.2,1069.8C280.1,1067.3 270.3,1064.2 260.0,1063.7C249.7,1063.2 240.4,1064.2 229.2,1067.0C218.0,1069.9 206.6,1075.4 192.7,1080.9C178.8,1086.4 163.1,1094.3 146.0,1100.1C129.0,1105.8 109.2,1112.4 90.2,1115.3C71.1,1118.3 50.0,1119.9 32.0,1117.8C13.9,1115.6 -4.3,1110.4 -18.3,1102.6C-32.2,1094.8 -43.8,1083.4 -51.5,1071.2C-59.1,1059.1 -62.8,1044.0 -64.2,1029.7C-65.6,1015.5 -62.7,1000.0 -59.7,985.9C-56.6,971.9 -50.6,958.1 -45.8,945.6C-41.1,933.0 -35.4,921.6 -31.1,910.7C-26.8,899.7 -23.2,889.9 -20.0,880.0C-16.8,870.1 -14.8,860.7 -11.9,851.4C-8.9,842.0 -6.5,832.6 -2.3,823.8C2.0,814.9 7.0,806.1 13.6,798.3C20.1,790.6 28.4,783.3 37.1,777.0C45.7,770.8 56.1,765.6 65.5,760.6C74.9,755.6 84.9,751.8 93.5,746.8C102.0,741.8 109.8,737.3 116.8,730.7C123.8,724.2 129.3,716.7 135.4,707.4C141.6,698.1 146.6,686.7 153.8,674.8C160.9,663.0 168.4,648.7 178.4,636.4C188.4,624.0 200.4,610.3 214.0,600.6C227.6,590.8 244.0,581.9 260.0,577.9C276.0,573.9 294.2,573.1 309.9,576.5C325.7,579.9 341.8,588.0 354.4,598.2C366.9,608.5 377.7,623.4 385.3,637.9C393.0,652.5 397.3,670.1 400.4,685.5C403.4,700.9 403.1,717.0 403.5,730.4C404.0,743.7 402.5,755.7 403.0,765.6C403.6,775.5 404.2,783.0 406.8,789.9C409.3,796.8 413.6,801.5 418.4,806.9C423.1,812.2 429.9,816.5 435.4,821.9C441.0,827.2 447.5,832.7 451.7,838.9C456.0,845.1 459.5,852.0 461.0,858.8C462.5,865.7 462.0,873.1 460.8,880.0Z" stroke="#b8892b" stroke-opacity="0.28" stroke-width="1.6"/><path d="M860.7,560.0C859.6,561.4 858.2,562.7 857.1,563.9C856.0,565.1 854.9,566.2 854.0,567.3C853.1,568.4 852.4,569.4 851.8,570.5C851.2,571.6 850.8,572.8 850.2,573.9C849.6,575.1 849.0,576.3 848.2,577.3C847.4,578.4 846.4,579.4 845.2,580.1C844.0,580.9 842.5,581.5 840.9,581.8C839.4,582.2 837.6,582.2 836.0,582.1C834.3,582.0 832.6,581.6 831.1,581.4C829.5,581.1 828.1,580.6 826.8,580.4C825.5,580.2 824.5,580.0 823.3,580.2C822.2,580.3 821.2,580.7 820.0,581.2C818.8,581.7 817.6,582.5 816.2,583.2C814.8,583.9 813.2,584.8 811.5,585.4C809.8,585.9 808.0,586.4 806.3,586.5C804.6,586.6 802.8,586.4 801.4,585.8C800.0,585.2 798.7,584.2 797.9,583.1C797.0,582.0 796.5,580.4 796.2,579.0C795.9,577.6 796.1,576.0 796.2,574.6C796.3,573.3 796.6,571.9 796.7,570.8C796.8,569.6 796.9,568.7 796.6,567.8C796.3,566.9 795.7,566.2 795.0,565.4C794.2,564.6 793.0,563.8 792.0,563.0C790.9,562.1 789.5,561.1 788.5,560.0C787.5,558.9 786.5,557.7 786.0,556.4C785.5,555.2 785.3,553.8 785.5,552.6C785.7,551.4 786.4,550.2 787.2,549.1C788.1,548.1 789.4,547.2 790.6,546.4C791.8,545.6 793.3,545.0 794.6,544.4C795.8,543.7 797.1,543.2 798.2,542.5C799.3,541.9 800.2,541.2 801.1,540.3C802.0,539.4 802.8,538.4 803.7,537.4C804.6,536.3 805.5,535.1 806.6,534.1C807.7,533.1 809.0,532.0 810.4,531.3C811.8,530.5 813.4,530.0 815.0,529.8C816.6,529.6 818.4,529.8 820.0,530.2C821.6,530.6 823.2,531.4 824.6,532.2C826.0,533.0 827.2,534.2 828.4,535.1C829.5,536.0 830.5,537.0 831.6,537.7C832.7,538.3 833.7,538.9 835.0,539.2C836.3,539.6 837.8,539.6 839.5,539.7C841.2,539.8 843.3,539.6 845.4,539.7C847.5,539.8 850.0,539.8 852.2,540.3C854.4,540.7 856.7,541.3 858.6,542.2C860.4,543.1 862.1,544.3 863.1,545.7C864.2,547.1 864.8,548.8 864.9,550.4C865.0,552.0 864.5,553.8 863.8,555.4C863.1,557.0 861.9,558.6 860.7,560.0Z" stroke="#0f766e" stroke-opacity="0.16" stroke-width="1"/><path d="M901.4,560.0C899.0,562.8 896.0,565.4 893.7,567.8C891.4,570.2 889.1,572.2 887.4,574.4C885.6,576.6 884.4,578.7 883.1,580.9C881.9,583.1 881.2,585.5 880.0,587.7C878.9,590.0 877.8,592.4 876.2,594.5C874.5,596.5 872.5,598.6 870.0,600.0C867.6,601.5 864.5,602.6 861.4,603.2C858.3,603.7 854.7,603.7 851.4,603.5C848.1,603.2 844.6,602.3 841.6,601.7C838.6,601.1 835.8,600.1 833.3,599.7C830.8,599.3 828.7,599.1 826.5,599.5C824.3,599.8 822.4,600.7 820.0,601.9C817.6,603.0 815.2,604.9 812.4,606.4C809.5,607.9 806.2,609.9 802.9,611.0C799.6,612.2 795.7,613.3 792.3,613.4C789.0,613.5 785.4,613.0 782.6,611.8C779.9,610.6 777.4,608.5 775.8,606.1C774.2,603.8 773.3,600.6 772.9,597.7C772.4,594.8 772.9,591.5 773.2,588.7C773.4,586.0 774.3,583.3 774.4,581.0C774.6,578.8 774.7,577.0 774.1,575.2C773.4,573.5 772.1,572.2 770.5,570.6C768.8,569.1 766.2,567.7 763.9,565.9C761.6,564.1 758.7,562.2 756.6,560.0C754.6,557.8 752.5,555.3 751.4,552.8C750.4,550.3 750.0,547.5 750.5,545.1C750.9,542.7 752.4,540.2 754.2,538.2C756.0,536.2 758.7,534.4 761.2,532.9C763.7,531.3 766.8,530.2 769.3,528.9C771.8,527.6 774.3,526.6 776.5,525.2C778.6,523.8 780.4,522.3 782.2,520.6C783.9,518.8 785.3,516.6 787.1,514.5C788.9,512.3 790.7,509.8 792.9,507.7C795.1,505.6 797.7,503.3 800.5,501.9C803.4,500.5 806.7,499.3 810.0,499.0C813.2,498.7 816.8,499.2 820.0,500.1C823.2,501.0 826.4,502.7 829.1,504.5C831.9,506.2 834.3,508.5 836.6,510.4C838.9,512.2 840.8,514.2 843.0,515.5C845.3,516.9 847.3,517.8 850.0,518.4C852.7,519.0 855.8,518.9 859.4,519.0C863.0,519.0 867.3,518.6 871.6,518.7C876.0,518.8 881.2,518.9 885.7,519.7C890.2,520.5 895.1,521.7 898.8,523.6C902.5,525.5 905.8,528.1 907.8,530.9C909.8,533.7 910.9,537.2 910.9,540.5C910.9,543.8 909.7,547.5 908.1,550.7C906.5,554.0 903.8,557.2 901.4,560.0Z" stroke="#0f766e" stroke-opacity="0.16" stroke-width="1"/><path d="M941.7,560.0C937.9,564.3 933.3,568.0 929.7,571.5C926.0,575.1 922.7,578.2 920.1,581.5C917.4,584.7 915.7,587.8 913.9,591.1C912.2,594.4 911.2,597.9 909.5,601.3C907.8,604.7 906.3,608.4 903.8,611.4C901.3,614.5 898.3,617.5 894.5,619.6C890.8,621.7 886.1,623.3 881.4,624.0C876.6,624.7 871.1,624.5 866.2,624.0C861.2,623.5 856.0,622.0 851.6,621.0C847.1,620.0 843.1,618.5 839.4,618.0C835.7,617.4 832.8,617.2 829.5,617.9C826.3,618.6 823.5,620.2 820.0,622.1C816.5,624.1 812.8,627.1 808.5,629.6C804.2,632.1 799.2,635.2 794.2,637.0C789.1,638.9 783.3,640.5 778.2,640.7C773.1,640.9 767.8,640.0 763.7,638.0C759.6,636.1 756.1,632.7 753.8,629.0C751.6,625.3 750.5,620.4 750.1,615.9C749.6,611.5 750.6,606.5 751.1,602.3C751.6,598.1 753.0,594.2 753.2,590.8C753.5,587.5 753.6,584.9 752.4,582.4C751.3,579.9 749.2,578.0 746.4,575.8C743.6,573.5 739.5,571.5 735.8,568.9C732.1,566.2 727.5,563.3 724.2,560.0C720.9,556.7 717.7,552.8 716.1,549.1C714.6,545.3 714.1,541.1 714.9,537.5C715.7,533.8 718.0,530.2 720.9,527.2C723.7,524.1 728.0,521.6 731.9,519.3C735.7,517.0 740.3,515.3 744.2,513.4C748.0,511.6 751.7,510.0 754.9,507.9C758.0,505.8 760.5,503.5 763.1,500.7C765.7,497.9 767.7,494.5 770.3,491.2C773.0,487.9 775.6,483.9 778.9,480.6C782.3,477.4 786.2,474.0 790.5,471.9C794.8,469.7 799.9,468.1 804.8,467.7C809.7,467.4 815.2,468.2 820.0,469.7C824.8,471.2 829.6,474.1 833.7,476.8C837.8,479.5 841.4,483.1 844.8,485.9C848.3,488.7 851.0,491.7 854.4,493.6C857.8,495.5 860.9,496.8 865.1,497.5C869.3,498.2 874.1,497.9 879.7,497.8C885.3,497.7 892.1,496.8 898.9,496.9C905.7,496.9 913.7,497.0 920.7,498.2C927.6,499.4 935.1,501.4 940.6,504.3C946.2,507.2 951.1,511.2 954.0,515.6C956.8,520.0 958.1,525.4 957.9,530.4C957.6,535.5 955.3,541.1 952.6,546.0C950.0,551.0 945.5,555.7 941.7,560.0Z" stroke="#0f766e" stroke-opacity="0.16" stroke-width="1"/><path d="M981.5,560.0C976.1,565.7 969.7,570.5 964.8,575.3C959.9,580.0 955.4,584.0 952.0,588.3C948.5,592.6 946.3,596.7 944.1,601.1C941.8,605.5 940.7,610.2 938.5,614.7C936.3,619.2 934.4,624.2 931.1,628.2C927.7,632.2 923.6,636.2 918.5,638.8C913.5,641.5 907.1,643.4 900.7,644.1C894.3,644.9 886.9,644.4 880.3,643.5C873.7,642.7 866.8,640.5 861.0,639.1C855.1,637.7 849.9,635.7 845.2,635.1C840.4,634.5 836.6,634.3 832.4,635.5C828.2,636.7 824.6,639.1 820.0,642.0C815.4,644.9 810.5,649.3 804.7,652.9C798.9,656.5 792.2,660.9 785.3,663.5C778.5,666.1 770.6,668.3 763.9,668.4C757.1,668.6 749.9,667.2 744.6,664.4C739.3,661.7 734.8,656.8 732.0,651.7C729.2,646.6 728.2,639.8 727.8,633.7C727.5,627.7 729.1,620.9 729.9,615.3C730.8,609.7 732.8,604.5 733.1,600.2C733.3,595.8 733.4,592.5 731.6,589.3C729.9,586.1 726.6,583.8 722.6,580.9C718.6,578.0 712.6,575.3 707.4,571.9C702.1,568.4 695.7,564.4 691.1,560.0C686.5,555.6 682.1,550.3 680.1,545.3C678.0,540.2 677.4,534.6 678.6,529.7C679.9,524.8 683.3,520.0 687.3,516.0C691.3,512.0 697.2,508.7 702.5,505.7C707.8,502.7 714.0,500.6 719.2,498.1C724.3,495.6 729.2,493.5 733.3,490.6C737.4,487.7 740.6,484.5 743.9,480.7C747.3,476.8 749.8,472.1 753.2,467.5C756.7,462.9 760.1,457.4 764.6,453.0C769.1,448.6 774.4,444.0 780.2,441.1C786.0,438.3 792.9,436.3 799.6,435.9C806.2,435.6 813.6,437.0 820.0,439.2C826.4,441.4 832.7,445.5 838.2,449.2C843.7,453.0 848.3,458.0 852.9,461.7C857.5,465.5 861.1,469.3 865.7,471.8C870.3,474.2 874.5,475.7 880.4,476.4C886.2,477.1 892.8,476.3 900.6,476.0C908.4,475.6 917.8,474.2 927.3,474.2C936.7,474.2 947.7,474.1 957.2,475.8C966.7,477.5 976.7,480.2 984.1,484.2C991.5,488.2 997.9,493.9 1001.5,499.9C1005.1,505.9 1006.3,513.3 1005.6,520.2C1004.9,527.1 1001.3,534.7 997.3,541.3C993.3,548.0 986.9,554.3 981.5,560.0Z" stroke="#b8892b" stroke-opacity="0.28" stroke-width="1.6"/><path d="M1020.6,560.0C1013.5,567.0 1005.3,573.0 999.0,578.8C992.7,584.7 987.2,589.6 982.9,594.9C978.7,600.3 976.1,605.4 973.5,610.9C970.8,616.4 969.6,622.3 967.0,627.9C964.4,633.5 962.0,639.7 957.8,644.6C953.7,649.6 948.4,654.4 942.0,657.6C935.6,660.8 927.4,662.9 919.4,663.6C911.3,664.4 902.0,663.4 893.7,662.1C885.4,660.9 877.0,658.0 869.8,656.1C862.6,654.3 856.3,651.8 850.5,651.2C844.8,650.5 840.3,650.6 835.2,652.4C830.1,654.1 825.7,657.7 820.0,661.7C814.3,665.7 808.1,671.7 800.8,676.5C793.6,681.2 784.9,687.0 776.3,690.4C767.7,693.7 757.8,696.5 749.3,696.6C740.8,696.7 731.9,694.7 725.5,691.0C719.0,687.3 713.6,680.9 710.4,674.2C707.2,667.6 706.4,658.8 706.3,651.0C706.1,643.2 708.5,634.7 709.7,627.7C711.0,620.7 713.6,614.3 713.9,609.0C714.2,603.7 714.0,599.8 711.5,596.0C709.0,592.1 704.5,589.4 699.0,585.9C693.5,582.4 685.5,579.2 678.6,574.9C671.6,570.6 663.1,565.6 657.2,560.0C651.3,554.4 645.7,547.7 643.1,541.4C640.5,535.0 640.1,527.9 641.8,521.8C643.5,515.7 648.2,509.7 653.4,504.8C658.6,499.9 666.3,495.8 673.2,492.2C680.0,488.5 687.8,486.0 694.3,482.8C700.7,479.7 706.7,477.1 711.7,473.4C716.7,469.6 720.5,465.5 724.5,460.5C728.5,455.5 731.5,449.3 735.8,443.3C740.0,437.3 744.2,430.2 749.9,424.6C755.5,419.0 762.3,413.2 769.6,409.7C777.0,406.2 785.9,403.8 794.3,403.6C802.7,403.4 811.9,405.4 820.0,408.5C828.1,411.5 835.9,416.9 842.7,421.8C849.6,426.7 855.2,433.1 860.9,437.8C866.6,442.5 871.1,447.2 876.9,450.1C882.7,452.9 888.3,454.4 895.8,455.0C903.3,455.5 912.0,454.2 922.2,453.5C932.3,452.8 944.6,450.7 956.8,450.6C969.0,450.4 983.2,450.3 995.3,452.4C1007.3,454.5 1020.1,458.1 1029.2,463.4C1038.4,468.6 1046.2,475.9 1050.3,483.7C1054.4,491.4 1055.4,501.0 1054.0,509.8C1052.5,518.7 1047.4,528.3 1041.8,536.6C1036.2,545.0 1027.8,553.0 1020.6,560.0Z" stroke="#0f766e" stroke-opacity="0.16" stroke-width="1"/><path d="M1058.8,560.0C1049.8,568.4 1039.7,575.4 1032.0,582.3C1024.3,589.2 1017.8,595.0 1012.8,601.3C1007.8,607.7 1005.1,613.8 1002.1,620.3C999.1,626.9 997.9,634.1 994.9,640.8C991.9,647.5 989.1,654.9 984.1,660.7C979.1,666.6 972.6,672.3 964.8,675.8C957.0,679.4 947.1,681.7 937.3,682.3C927.6,682.9 916.2,681.4 906.3,679.6C896.5,677.9 886.4,674.2 878.0,671.9C869.5,669.7 862.2,666.7 855.6,666.2C848.9,665.6 843.8,666.1 837.9,668.6C831.9,671.1 826.8,675.9 820.0,681.2C813.2,686.5 805.7,694.2 796.9,700.3C788.1,706.4 777.5,713.7 767.1,717.8C756.7,722.0 744.6,725.2 734.5,725.2C724.3,725.2 713.8,722.5 706.2,717.7C698.6,712.9 692.6,704.8 689.1,696.4C685.7,688.1 685.1,677.2 685.4,667.7C685.6,658.2 688.8,647.9 690.5,639.5C692.2,631.1 695.4,623.6 695.7,617.4C695.9,611.2 695.4,606.8 692.0,602.4C688.6,598.0 682.5,595.1 675.4,591.0C668.2,586.9 658.0,583.2 649.1,578.0C640.3,572.8 629.6,566.8 622.3,560.0C615.0,553.2 608.2,545.1 605.2,537.4C602.2,529.7 601.9,521.1 604.3,513.8C606.6,506.4 612.7,499.3 619.2,493.5C625.8,487.6 635.5,482.9 643.8,478.6C652.2,474.3 661.7,471.3 669.5,467.6C677.2,463.8 684.2,460.7 690.1,456.0C696.0,451.4 700.2,446.2 704.9,440.0C709.5,433.7 712.9,425.9 717.9,418.5C722.9,411.1 728.0,402.3 734.8,395.5C741.6,388.6 749.9,381.6 758.9,377.5C767.9,373.4 778.7,370.8 788.9,370.8C799.1,370.8 810.3,373.7 820.0,377.6C829.7,381.6 839.1,388.5 847.2,394.6C855.4,400.6 862.0,408.5 868.9,414.1C875.7,419.7 881.0,425.2 888.1,428.4C895.2,431.6 902.1,432.9 911.5,433.2C920.9,433.5 931.8,431.5 944.4,430.3C957.1,429.0 972.5,426.3 987.6,425.9C1002.7,425.5 1020.2,425.4 1035.0,428.0C1049.7,430.7 1065.1,435.3 1076.0,441.8C1086.8,448.3 1095.8,457.5 1100.3,467.1C1104.7,476.7 1105.1,488.6 1102.7,499.4C1100.3,510.2 1093.3,521.9 1086.0,532.0C1078.6,542.1 1067.8,551.6 1058.8,560.0Z" stroke="#0f766e" stroke-opacity="0.16" stroke-width="1"/></g><path fill="none" d="M120,520 C380,380 560,700 820,560 S1240,300 1480,460" stroke="#b8892b" stroke-opacity="0.35" stroke-width="2.5" stroke-dasharray="2 10" stroke-linecap="round"/><g transform="translate(108,488)" opacity="0.5"><path d="M12 0C5.4 0 0 5.2 0 11.6 0 20.3 12 32 12 32s12-11.7 12-20.4C24 5.2 18.6 0 12 0z" fill="#ef4444"/><circle cx="12" cy="11.5" r="4.5" fill="#fff"/></g><g transform="translate(808,528)" opacity="0.5"><path d="M12 0C5.4 0 0 5.2 0 11.6 0 20.3 12 32 12 32s12-11.7 12-20.4C24 5.2 18.6 0 12 0z" fill="#0ea5e9"/><circle cx="12" cy="11.5" r="4.5" fill="#fff"/></g><g transform="translate(1468,428)" opacity="0.5"><path d="M12 0C5.4 0 0 5.2 0 11.6 0 20.3 12 32 12 32s12-11.7 12-20.4C24 5.2 18.6 0 12 0z" fill="#b8892b"/><circle cx="12" cy="11.5" r="4.5" fill="#fff"/></g></svg>